<svg width="4174" height="3288" viewBox="0 0 4174 3288" fill="none" xmlns="http://www.w3.org/2000/svg">
<g clip-path="url(#clip0_324_3263)">
<path fill-rule="evenodd" clip-rule="evenodd" d="M399.586 2085.46C465.439 2309.2 619.297 2519.06 938.825 2680.16C1258.91 2841.53 1518.29 2915.78 1739.91 2936.11C1961.48 2956.43 2145.55 2922.88 2315.11 2868.31C2423.47 2833.43 2525.64 2790.07 2627.98 2746.64C2686.07 2721.99 2744.21 2697.32 2803.57 2674.16C2967.23 2610.31 3139.4 2558.33 3342.82 2551.52C3545.62 2544.73 3689.58 2552.34 3800.05 2584.02C3910.76 2615.76 3987.57 2671.57 4056.3 2760.56C4124.91 2849.39 4185.59 2971.45 4264.04 3135.76C4272.72 3153.93 4281.61 3172.61 4290.75 3191.83C4364.37 3346.53 4454.4 3535.72 4578.98 3766.05C4802.61 4179.5 5170.3 4359.72 5539.09 4417.18C5908.09 4474.67 6278.32 4409.26 6506.43 4331.2L6509.1 4336.94C6279.97 4415.35 5908.27 4481.04 5537.58 4423.28C5166.68 4365.5 4796.91 4184.14 4572.21 3768.72C4447.55 3538.25 4357.47 3348.95 4283.85 3194.25C4274.71 3175.03 4265.81 3156.34 4257.14 3138.18C4178.62 2973.73 4118.19 2852.26 4050.04 2764.01C3982 2675.92 3906.39 2621.12 3797.51 2589.9C3688.39 2558.61 3545.59 2550.94 3342.95 2557.73C3140.93 2564.49 2969.81 2616.1 2806.57 2679.78C2747.71 2702.75 2689.78 2727.33 2631.77 2751.94C2529.15 2795.48 2426.29 2839.12 2317.63 2874.1C2147.24 2928.94 1961.95 2962.73 1738.94 2942.28C1515.98 2921.83 1255.59 2847.18 934.89 2685.5C613.642 2523.53 458.669 2312.3 392.38 2087.08C326.135 1862 348.498 1623.08 381.496 1405.74C388.028 1362.72 394.971 1320.58 401.73 1279.55C412.062 1216.83 421.964 1156.73 429.308 1100.1C441.452 1006.46 446.533 922.745 434.997 853.166C423.467 783.618 395.394 728.54 341.594 691.712C287.772 654.869 207.595 635.876 90.7629 639.634C-143.296 647.162 -290.424 697.069 -390.616 764.016C-490.881 831.012 -544.552 915.324 -591.225 992.515C-593.499 996.275 -595.757 1000.02 -598.004 1003.75C-618.772 1038.19 -638.564 1071.02 -660.936 1099.72C-685.757 1131.56 -713.916 1158.55 -750.461 1177.26C-823.725 1214.77 -929.275 1218.34 -1105.81 1164.32C-1388.57 1077.8 -1541.12 943.001 -1616.74 809.408C-1692.3 675.909 -1690.93 543.827 -1666.29 462.797L-1659.1 464.198C-1683.35 543.911 -1684.81 674.511 -1610.02 806.644C-1535.28 938.681 -1384.27 1072.46 -1103.13 1158.48C-927.224 1212.3 -824.482 1207.95 -754.224 1171.98C-719.008 1153.95 -691.599 1127.81 -667.122 1096.41C-645.001 1068.03 -625.409 1035.54 -604.604 1001.04C-602.362 997.319 -600.105 993.576 -597.829 989.813C-551.143 912.6 -496.848 827.143 -395.162 759.197C-293.401 691.202 -144.593 640.994 90.6497 633.428C208.468 629.639 290.673 648.742 346.369 686.868C402.089 725.009 430.674 781.773 442.346 852.173C454.013 922.541 448.841 1006.88 436.684 1100.63C429.331 1157.32 419.399 1217.62 409.051 1280.43C402.295 1321.44 395.363 1363.53 388.855 1406.39C355.872 1623.63 333.689 1861.57 399.586 2085.46Z" fill="#5C93B1" fill-opacity="0.22"/>
<path fill-rule="evenodd" clip-rule="evenodd" d="M471.272 2019.52C537.826 2242.14 692.086 2451.2 1011.37 2612.23C1331.2 2773.53 1590.16 2848.06 1811.24 2868.87C2032.27 2889.67 2215.7 2856.82 2384.57 2803.02C2492.49 2768.64 2594.2 2725.82 2696.08 2682.92C2753.91 2658.57 2811.8 2634.2 2870.9 2611.34C3033.86 2548.3 3205.34 2497.09 3408.17 2490.86C3610.38 2484.66 3753.97 2492.62 3864.26 2524.41C3974.77 2556.27 4051.59 2611.96 4120.47 2700.62C4189.24 2789.12 4250.24 2910.63 4329.12 3074.2C4337.85 3092.29 4346.79 3110.89 4355.98 3130.02C4430.01 3284.02 4520.53 3472.35 4645.68 3701.68C4870.32 4113.34 5237.7 4293.51 5605.71 4351.64C5973.91 4409.79 6342.85 4345.77 6570.01 4268.79L6572.66 4274.54C6344.46 4351.87 5974.06 4416.16 5604.17 4357.74C5234.09 4299.29 4864.63 4117.98 4638.92 3704.37C4513.7 3474.91 4423.12 3286.46 4349.09 3132.46C4339.9 3113.32 4330.96 3094.72 4322.23 3076.64C4243.28 2912.93 4182.54 2792 4114.23 2704.09C4046.03 2616.32 3970.41 2561.62 3861.7 2530.29C3752.76 2498.89 3610.33 2490.87 3408.27 2497.07C3206.85 2503.25 3036.41 2554.09 2873.88 2616.96C2815.28 2639.63 2757.6 2663.91 2699.85 2688.22C2597.69 2731.23 2495.29 2774.35 2387.07 2808.82C2217.36 2862.89 2032.72 2895.98 1810.25 2875.04C1587.83 2854.1 1327.87 2779.18 1007.43 2617.57C686.446 2455.68 531.068 2245.26 464.073 2021.16C397.121 1797.21 418.478 1559.74 450.524 1343.75C456.868 1301 463.625 1259.12 470.202 1218.35C480.258 1156.02 489.895 1096.29 496.995 1040.01C508.735 946.945 513.47 863.737 501.691 794.534C489.919 725.363 461.708 670.526 407.906 633.762C354.081 596.983 274.047 577.884 157.557 581.303C-75.8222 588.152 -222.337 637.37 -321.976 703.65C-421.686 769.979 -474.87 853.647 -521.108 930.262C-523.359 933.992 -525.595 937.707 -527.82 941.404C-548.394 975.594 -568.005 1008.18 -590.205 1036.66C-614.833 1068.25 -642.813 1095.02 -679.189 1113.52C-752.113 1150.62 -857.358 1153.87 -1033.61 1099.7C-1315.92 1012.92 -1468.57 878.487 -1544.51 745.467C-1620.39 612.539 -1619.55 481.223 -1595.29 400.722L-1588.1 402.109C-1611.96 481.284 -1612.9 611.117 -1537.8 742.685C-1462.74 874.16 -1311.62 1007.57 -1030.91 1093.86C-855.279 1147.85 -752.843 1143.8 -682.935 1108.23C-647.896 1090.41 -620.671 1064.5 -596.39 1033.35C-574.444 1005.2 -555.036 972.952 -534.426 938.705C-532.204 935.014 -529.969 931.299 -527.715 927.564C-481.464 850.927 -427.653 766.105 -326.508 698.823C-225.291 631.493 -77.0881 581.98 157.468 575.096C274.945 571.649 356.99 590.864 412.677 628.915C468.386 666.982 497.118 723.492 509.037 793.519C520.95 863.513 516.125 947.353 504.373 1040.52C497.265 1096.87 487.599 1156.78 477.528 1219.2C470.953 1259.96 464.206 1301.78 457.886 1344.37C425.854 1560.27 404.674 1796.75 471.272 2019.52Z" fill="#5C93B1" fill-opacity="0.22"/>
<path fill-rule="evenodd" clip-rule="evenodd" d="M530.692 1955.5C596.546 2179.25 750.404 2389.1 1069.93 2550.2C1390.01 2711.57 1649.4 2785.82 1871.02 2806.15C2092.58 2826.47 2276.66 2792.93 2446.22 2738.35C2554.58 2703.47 2656.75 2660.12 2759.09 2616.69C2817.18 2592.04 2875.32 2567.36 2934.67 2544.21C3098.34 2480.36 3270.5 2428.38 3473.93 2421.56C3676.72 2414.77 3820.69 2422.39 3931.16 2454.06C4041.87 2485.8 4118.67 2541.62 4187.4 2630.6C4256.01 2719.43 4316.7 2841.49 4395.15 3005.81C4403.82 3023.97 4412.71 3042.66 4421.86 3061.88C4495.48 3216.58 4585.5 3405.76 4710.09 3636.09C4933.72 4049.54 5301.4 4229.76 5670.2 4287.22C6039.2 4344.71 6409.43 4279.3 6637.54 4201.25L6640.21 4206.99C6411.07 4285.4 6039.37 4351.08 5668.68 4293.33C5297.79 4235.54 4928.01 4054.18 4703.32 3638.76C4578.66 3408.3 4488.58 3218.99 4414.96 3064.29C4405.81 3045.07 4396.92 3026.39 4388.25 3008.22C4309.73 2843.77 4249.3 2722.3 4181.14 2634.06C4113.11 2545.97 4037.5 2491.16 3928.61 2459.94C3819.5 2428.66 3676.7 2420.98 3474.05 2427.77C3272.04 2434.54 3100.92 2486.14 2937.68 2549.83C2878.82 2572.79 2820.89 2597.37 2762.88 2621.98C2660.26 2665.52 2557.4 2709.17 2448.74 2744.14C2278.35 2798.99 2093.05 2832.78 1870.04 2812.32C1647.08 2791.87 1386.69 2717.22 1066 2555.54C744.749 2393.58 589.776 2182.35 523.486 1957.12C457.241 1732.04 479.605 1493.13 512.602 1275.79C519.134 1232.77 526.078 1190.62 532.837 1149.59C543.169 1086.88 553.071 1026.77 560.415 970.143C572.559 876.499 577.639 792.789 566.104 723.21C554.573 653.662 526.501 598.583 472.701 561.755C418.878 524.912 338.701 505.92 221.869 509.677C-12.1894 517.205 -159.318 567.112 -259.509 634.059C-359.774 701.056 -413.446 785.368 -460.119 862.558C-462.393 866.319 -464.651 870.064 -466.898 873.791C-487.666 908.235 -507.458 941.064 -529.83 969.765C-554.651 1001.61 -582.81 1028.6 -619.354 1047.3C-692.619 1084.81 -798.169 1088.38 -974.707 1034.36C-1257.47 947.847 -1410.01 813.045 -1485.63 679.452C-1561.2 545.953 -1559.83 413.871 -1535.18 332.84L-1528 334.242C-1552.24 413.954 -1553.71 544.555 -1478.91 676.687C-1404.17 808.725 -1253.16 942.502 -972.019 1028.52C-796.117 1082.35 -693.376 1078 -623.118 1042.03C-587.902 1024 -560.493 997.857 -536.015 966.456C-513.894 938.077 -494.303 905.585 -473.498 871.082C-471.255 867.363 -468.998 863.62 -466.723 859.856C-420.036 782.644 -365.742 697.187 -264.055 629.241C-162.295 561.246 -13.4863 511.038 221.756 503.472C339.575 499.683 421.779 518.785 477.476 556.911C533.195 595.053 561.781 651.817 573.453 722.217C585.119 792.585 579.947 876.927 567.79 970.672C560.438 1027.37 550.505 1087.66 540.158 1150.48C533.402 1191.49 526.469 1233.57 519.962 1276.43C486.978 1493.68 464.795 1731.61 530.692 1955.5Z" fill="#5C93B1" fill-opacity="0.22"/>
<path fill-rule="evenodd" clip-rule="evenodd" d="M596.92 1886.68C663.474 2109.3 817.734 2318.36 1137.02 2479.38C1456.85 2640.69 1715.81 2715.21 1936.89 2736.02C2157.92 2756.83 2341.35 2723.98 2510.22 2670.18C2618.14 2635.8 2719.85 2592.97 2821.73 2550.07C2879.56 2525.72 2937.44 2501.35 2996.55 2478.49C3159.51 2415.45 3330.99 2364.24 3533.82 2358.02C3736.03 2351.82 3879.62 2359.78 3989.9 2391.57C4100.42 2423.42 4177.23 2479.12 4246.12 2567.77C4314.89 2656.27 4375.89 2777.78 4454.77 2941.36C4463.49 2959.44 4472.43 2978.04 4481.63 2997.18C4555.65 3151.18 4646.18 3339.5 4771.33 3568.84C4995.97 3980.49 5363.35 4160.66 5731.36 4218.79C6099.56 4276.95 6468.49 4212.93 6695.66 4135.94L6698.31 4141.69C6470.11 4219.02 6099.71 4283.32 5729.82 4224.89C5359.74 4166.44 4990.28 3985.14 4764.57 3571.52C4639.35 3342.06 4548.76 3153.61 4474.74 2999.61C4465.54 2980.48 4456.6 2961.88 4447.88 2943.8C4368.93 2780.08 4308.19 2659.16 4239.87 2571.24C4171.68 2483.48 4096.05 2428.78 3987.34 2397.44C3878.41 2366.05 3735.97 2358.03 3533.92 2364.23C3332.5 2370.41 3162.06 2421.24 2999.53 2484.12C2940.93 2506.79 2883.25 2531.07 2825.5 2555.38C2723.34 2598.39 2620.94 2641.5 2512.72 2675.98C2343.01 2730.04 2158.36 2763.13 1935.9 2742.19C1713.48 2721.26 1453.52 2646.34 1133.08 2484.72C812.093 2322.83 656.716 2112.41 589.72 1888.31C522.769 1664.36 544.125 1426.89 576.172 1210.9C582.515 1168.15 589.272 1126.27 595.85 1085.5C605.906 1023.18 615.543 963.448 622.642 907.165C634.382 814.099 639.118 730.892 627.339 661.688C615.566 592.518 587.356 537.681 533.553 500.917C479.729 464.138 399.694 445.039 283.204 448.458C49.8254 455.307 -96.6897 504.525 -196.328 570.805C-296.039 637.133 -349.223 720.801 -395.461 797.416C-397.712 801.147 -399.948 804.862 -402.172 808.558C-422.746 842.749 -442.357 875.337 -464.557 903.815C-489.185 935.409 -517.165 962.17 -553.542 980.675C-626.465 1017.77 -731.71 1021.03 -907.963 966.85C-1190.27 880.071 -1342.92 745.641 -1418.86 612.621C-1494.74 479.693 -1493.9 348.378 -1469.64 267.876L-1462.45 269.264C-1486.31 348.439 -1487.26 478.272 -1412.15 609.839C-1337.1 741.314 -1185.97 874.727 -905.265 961.014C-729.632 1015 -627.195 1010.95 -557.287 975.388C-522.248 957.563 -495.024 931.655 -470.742 900.506C-448.797 872.354 -429.389 840.106 -408.778 805.859C-406.557 802.168 -404.321 798.454 -402.067 794.719C-355.816 718.081 -302.006 633.259 -200.861 565.977C-99.6435 498.647 48.5595 449.135 283.115 442.251C400.592 438.803 482.638 458.018 538.325 496.07C594.034 534.137 622.766 590.647 634.685 660.673C646.598 730.667 641.773 814.507 630.02 907.676C622.913 964.02 613.246 1023.94 603.176 1086.36C596.601 1127.11 589.854 1168.94 583.534 1211.53C551.502 1427.42 530.322 1663.91 596.92 1886.68Z" fill="#5C93B1" fill-opacity="0.22"/>
<path fill-rule="evenodd" clip-rule="evenodd" d="M663.147 1820.83C729.292 2043.98 883.274 2253.4 1202.57 2414.4C1522.42 2575.68 1781.51 2650.03 2002.81 2670.57C2224.04 2691.1 2407.76 2657.88 2576.94 2603.68C2685.06 2569.04 2786.99 2525.94 2889.08 2482.76C2947.03 2458.26 3005.03 2433.73 3064.25 2410.72C3227.53 2347.26 3399.32 2295.65 3602.41 2289.1C3804.86 2282.58 3948.6 2290.35 4058.95 2322.06C4169.53 2353.84 4246.31 2409.58 4315.08 2498.38C4383.74 2587.03 4444.54 2708.8 4523.16 2872.72C4531.85 2890.84 4540.76 2909.48 4549.93 2928.65C4623.7 3082.98 4713.92 3271.7 4838.71 3501.5C5062.71 3913.98 5430.12 4094.11 5798.42 4151.85C6166.92 4209.62 6536.42 4144.86 6764.02 4067.32L6766.68 4073.06C6538.05 4150.96 6167.08 4215.99 5796.89 4157.95C5426.51 4099.89 5057.01 3918.62 4831.94 3504.17C4707.08 3274.25 4616.8 3085.4 4543.03 2931.07C4533.86 2911.9 4524.95 2893.26 4516.26 2875.14C4437.58 2711.09 4377.03 2589.91 4308.83 2501.85C4240.74 2413.94 4165.16 2359.2 4056.39 2327.94C3947.4 2296.62 3804.82 2288.79 3602.52 2295.31C3400.85 2301.81 3230.1 2353.05 3067.24 2416.34C3008.52 2439.16 2950.73 2463.6 2892.86 2488.07C2790.49 2531.35 2687.87 2574.74 2579.45 2609.47C2409.43 2663.94 2224.5 2697.41 2001.82 2676.74C1779.19 2656.08 1519.09 2581.33 1198.63 2419.74C877.625 2257.87 722.528 2047.09 655.944 1822.46C589.404 1597.97 611.304 1359.8 643.859 1143.16C650.303 1100.27 657.16 1058.26 663.834 1017.37C674.038 954.853 683.816 894.941 691.047 838.487C703.003 745.141 707.926 661.689 696.284 592.306C684.649 522.955 656.525 468.007 602.744 431.223C548.942 394.423 468.859 375.389 352.227 378.992C118.564 386.21 -28.2309 435.787 -128.134 502.407C-228.11 569.075 -281.541 653.064 -327.999 729.966C-330.265 733.717 -332.515 737.452 -334.754 741.169C-355.424 775.479 -375.124 808.181 -397.406 836.766C-422.131 868.485 -450.199 895.359 -486.654 913.97C-559.737 951.278 -665.11 954.702 -841.453 900.634C-1123.9 814.031 -1276.44 679.448 -1352.17 546.164C-1427.85 412.974 -1426.72 281.288 -1402.26 200.527L-1395.07 201.922C-1419.13 281.362 -1420.36 411.565 -1345.46 543.392C-1270.61 675.125 -1119.6 808.687 -838.759 894.796C-663.046 948.672 -560.481 944.459 -490.409 908.688C-455.286 890.758 -427.971 864.733 -403.592 833.457C-381.557 805.19 -362.054 772.819 -341.344 738.443C-339.113 734.739 -336.868 731.013 -334.604 727.265C-288.133 650.342 -234.078 565.204 -132.674 497.584C-31.1978 429.915 117.281 380.041 352.125 372.786C469.744 369.153 551.847 388.299 607.518 426.377C663.212 464.471 691.853 521.099 703.632 591.304C715.406 661.476 710.393 745.559 698.423 839.008C691.185 895.521 681.377 955.619 671.159 1018.23C664.487 1059.11 657.64 1101.06 651.22 1143.79C618.679 1360.34 596.958 1597.53 663.147 1820.83Z" fill="#5C93B1" fill-opacity="0.22"/>
<path fill-rule="evenodd" clip-rule="evenodd" d="M721.893 1757.67C787.747 1981.42 941.605 2191.27 1261.13 2352.37C1581.21 2513.74 1840.6 2587.99 2062.22 2608.32C2283.78 2628.64 2467.86 2595.09 2637.42 2540.52C2745.78 2505.64 2847.95 2462.28 2950.29 2418.86C3008.38 2394.21 3066.52 2369.53 3125.87 2346.38C3289.54 2282.52 3461.7 2230.55 3665.13 2223.73C3867.93 2216.94 4011.89 2224.56 4122.36 2256.23C4233.07 2287.97 4309.87 2343.78 4378.6 2432.77C4447.21 2521.6 4507.9 2643.66 4586.35 2807.97C4595.02 2826.14 4603.91 2844.83 4613.06 2864.04C4686.68 3018.74 4776.7 3207.93 4901.29 3438.26C5124.92 3851.71 5492.6 4031.93 5861.4 4089.39C6230.4 4146.88 6600.63 4081.47 6828.74 4003.41L6831.41 4009.16C6602.27 4087.56 6230.58 4153.25 5859.88 4095.49C5488.99 4037.71 5119.21 3856.35 4894.52 3440.93C4769.86 3210.47 4679.78 3021.16 4606.16 2866.46C4597.01 2847.24 4588.12 2828.56 4579.45 2810.39C4500.93 2645.94 4440.5 2524.47 4372.35 2436.23C4304.31 2348.14 4228.7 2293.33 4119.81 2262.11C4010.7 2230.83 3867.9 2223.15 3665.26 2229.94C3463.24 2236.7 3292.12 2288.31 3128.88 2351.99C3070.02 2374.96 3012.09 2399.54 2954.08 2424.15C2851.46 2467.69 2748.6 2511.33 2639.94 2546.31C2469.55 2601.15 2284.25 2634.95 2061.24 2614.49C1838.29 2594.04 1577.89 2519.39 1257.2 2357.71C935.95 2195.75 780.977 1984.51 714.688 1759.29C648.442 1534.21 670.806 1295.29 703.804 1077.96C710.336 1034.93 717.279 992.788 724.038 951.76C734.37 889.045 744.272 828.941 751.616 772.311C763.76 678.667 768.84 594.956 757.305 525.377C745.774 455.83 717.702 400.751 663.902 363.923C610.08 327.08 529.902 308.088 413.071 311.845C179.012 319.373 31.8837 369.28 -68.308 436.227C-168.573 503.223 -222.244 587.535 -268.917 664.726C-271.192 668.487 -273.45 672.232 -275.696 675.958C-296.464 710.403 -316.256 743.231 -338.628 771.932C-363.45 803.775 -391.608 830.763 -428.153 849.472C-501.417 886.98 -606.967 890.547 -783.506 836.531C-1066.27 750.015 -1218.81 615.212 -1294.43 481.619C-1370 348.121 -1368.63 216.039 -1343.98 135.008L-1336.79 136.409C-1361.04 216.122 -1362.5 346.723 -1287.71 478.855C-1212.97 610.893 -1061.96 744.67 -780.818 830.692C-604.916 884.513 -502.174 880.163 -431.916 844.194C-396.7 826.165 -369.291 800.025 -344.814 768.624C-322.693 740.245 -303.102 707.752 -282.296 673.25C-280.054 669.53 -277.797 665.788 -275.521 662.024C-228.835 584.812 -174.54 499.354 -72.854 431.408C28.9064 363.414 177.715 313.205 412.957 305.64C530.776 301.85 612.98 320.953 668.677 359.079C724.396 397.221 752.982 453.985 764.654 524.385C776.321 594.753 771.149 679.095 758.991 772.839C751.639 829.535 741.707 889.831 731.359 952.646C724.603 993.656 717.67 1035.74 711.163 1078.6C678.18 1295.84 655.996 1533.78 721.893 1757.67Z" fill="#5C93B1" fill-opacity="0.22"/>
<path fill-rule="evenodd" clip-rule="evenodd" d="M789.74 1689.71C856.411 1912.39 1010.83 2121.53 1330.33 2282.67C1650.37 2444.09 1909.49 2518.7 2130.69 2539.57C2351.84 2560.44 2535.35 2527.63 2704.28 2473.86C2812.24 2439.5 2913.98 2396.69 3015.9 2353.81C3073.75 2329.47 3131.65 2305.11 3190.77 2282.26C3353.79 2219.25 3525.33 2168.08 3728.26 2161.91C3930.56 2155.75 4074.22 2163.76 4184.58 2195.58C4295.16 2227.47 4372.03 2283.19 4440.99 2371.88C4509.82 2460.42 4570.89 2581.97 4649.88 2745.6C4658.61 2763.69 4667.56 2782.3 4676.77 2801.44C4750.89 2955.49 4841.53 3143.87 4966.83 3373.28C5191.74 3785.08 5559.37 3965.39 5927.57 4023.62C6295.98 4081.88 6665.07 4017.94 6892.32 3941L6894.96 3946.75C6666.69 4024.04 6296.12 4088.25 5926.04 4029.72C5555.75 3971.16 5186.05 3789.73 4960.07 3375.97C4834.7 3146.43 4744 2957.92 4669.88 2803.87C4660.67 2784.73 4651.72 2766.12 4642.99 2748.04C4563.94 2584.27 4503.12 2463.3 4434.74 2375.35C4366.48 2287.55 4290.79 2232.82 4182.02 2201.46C4073.01 2170.02 3930.51 2161.96 3728.36 2168.11C3526.84 2174.24 3356.34 2225.05 3193.75 2287.89C3135.13 2310.55 3077.44 2334.82 3019.67 2359.12C2917.47 2402.11 2815.03 2445.2 2706.77 2479.66C2537 2533.69 2352.28 2566.74 2129.69 2545.74C1907.16 2524.74 1647.05 2449.74 1326.39 2288.01C1005.19 2126.01 849.654 1915.51 782.541 1691.35C715.471 1467.33 736.749 1229.82 768.73 1013.8C775.06 971.036 781.805 929.15 788.37 888.375C798.407 826.04 808.026 766.301 815.108 710.008C826.818 616.927 831.525 533.704 819.714 464.483C807.91 395.296 779.665 340.44 725.822 303.654C671.956 266.853 591.872 247.729 475.327 251.118C241.836 257.908 95.2676 307.099 -4.39395 373.366C-104.129 439.681 -157.306 523.352 -203.537 599.97C-205.794 603.709 -208.034 607.433 -210.263 611.137C-230.83 645.32 -250.433 677.902 -272.628 706.373C-297.257 737.967 -325.24 764.726 -361.628 783.226C-434.573 820.311 -539.867 823.54 -716.226 769.305C-998.705 682.437 -1151.48 547.942 -1227.5 414.876C-1303.47 281.902 -1302.68 150.561 -1278.44 70.049L-1271.25 71.4348C-1295.09 150.619 -1295.99 280.478 -1220.8 412.092C-1145.65 543.613 -994.406 677.093 -713.527 763.47C-537.786 817.515 -435.301 813.49 -365.372 777.937C-330.323 760.118 -303.095 734.212 -278.813 703.064C-256.867 674.912 -237.462 642.662 -216.853 608.413C-214.632 604.722 -212.397 601.008 -210.144 597.273C-163.9 520.632 -110.095 435.807 -8.92595 368.537C92.3159 301.22 240.572 251.736 475.24 244.911C592.773 241.493 674.865 260.734 730.591 298.806C786.341 336.895 815.109 393.422 827.059 463.466C839.005 533.477 834.21 617.333 822.486 710.517C815.397 766.87 805.749 826.795 795.697 889.225C789.134 929.988 782.399 971.818 776.092 1014.42C744.126 1230.34 723.025 1466.87 789.74 1689.71Z" fill="#5C93B1" fill-opacity="0.22"/>
<path fill-rule="evenodd" clip-rule="evenodd" d="M851.38 1626.86C917.116 1850.54 1070.82 2060.31 1390.13 2221.29C1709.99 2382.55 1969.22 2456.71 2190.72 2476.98C2412.17 2497.24 2596.17 2463.66 2765.67 2409.05C2873.99 2374.15 2976.13 2330.77 3078.43 2287.33C3136.5 2262.67 3194.62 2237.98 3253.96 2214.82C3417.57 2150.93 3589.67 2098.92 3793 2092.06C3995.7 2085.21 4139.58 2092.79 4249.99 2124.43C4360.63 2156.14 4437.38 2211.92 4506.05 2300.87C4574.59 2389.67 4635.2 2511.68 4713.55 2675.95C4722.21 2694.11 4731.09 2712.79 4740.23 2732C4813.75 2886.65 4903.66 3075.77 5028.1 3306.03C5251.46 3719.33 5618.9 3899.42 5987.49 3956.77C6356.29 4014.15 6726.35 3948.67 6954.39 3870.56L6957.06 3876.3C6728 3954.76 6356.46 4020.52 5985.97 3962.88C5615.28 3905.2 5245.75 3723.97 5021.32 3308.69C4896.82 3078.31 4806.85 2889.06 4733.32 2734.41C4724.19 2715.2 4715.31 2696.52 4706.65 2678.36C4628.23 2513.96 4567.88 2392.53 4499.79 2304.32C4431.82 2216.27 4356.26 2161.49 4247.45 2130.31C4138.4 2099.06 3995.67 2091.42 3793.12 2098.26C3591.21 2105.08 3420.15 2156.72 3256.97 2220.43C3198.13 2243.41 3140.21 2268 3082.22 2292.62C2979.64 2336.18 2876.81 2379.84 2768.19 2414.84C2597.86 2469.71 2412.65 2503.55 2189.75 2483.15C1966.91 2462.77 1706.67 2388.2 1386.19 2226.63C1065.16 2064.78 910.345 1853.63 844.173 1628.47C778.046 1403.46 800.488 1164.58 833.552 947.277C840.097 904.264 847.052 862.127 853.823 821.109C864.174 758.4 874.094 698.304 881.456 641.68C893.63 548.052 898.74 464.357 887.236 394.794C875.737 325.263 847.699 270.204 793.94 233.398C740.16 196.578 660.03 177.61 543.254 181.397C309.308 188.984 162.233 238.919 62.0643 305.878C-38.1774 372.887 -91.8544 457.197 -138.533 534.384C-140.811 538.151 -143.074 541.902 -145.325 545.634C-166.091 580.071 -185.883 612.891 -208.251 641.587C-233.072 673.43 -261.227 700.419 -297.761 719.134C-371.003 756.654 -476.504 760.247 -652.936 706.288C-935.527 619.861 -1087.95 485.125 -1163.48 351.577C-1238.96 218.124 -1237.54 86.0681 -1212.88 5.04813L-1205.69 6.45047C-1229.95 86.154 -1231.47 216.729 -1156.76 348.814C-1082.11 480.806 -931.223 614.517 -650.25 700.448C-474.455 754.213 -371.763 749.837 -301.526 713.857C-266.32 695.822 -238.914 669.68 -214.437 638.278C-192.313 609.896 -172.717 577.401 -151.906 542.896C-149.666 539.18 -147.41 535.442 -145.137 531.682C-98.4449 454.473 -44.1446 369.019 57.5175 301.061C159.253 233.053 308.008 182.817 543.138 175.191C660.901 171.372 743.06 190.45 798.717 228.555C854.395 266.675 882.946 323.421 894.585 393.804C906.22 464.155 901.018 548.481 888.832 642.211C881.462 698.894 871.512 759.177 861.146 821.98C854.377 862.986 847.432 905.066 840.911 947.921C807.862 1165.13 785.6 1403.02 851.38 1626.86Z" fill="#5C93B1" fill-opacity="0.22"/>
<path fill-rule="evenodd" clip-rule="evenodd" d="M919.901 1558.03C986.046 1781.18 1140.03 1990.6 1459.32 2151.6C1779.17 2312.88 2038.27 2387.23 2259.56 2407.76C2480.8 2428.3 2664.51 2395.08 2833.69 2340.88C2941.81 2306.24 3043.74 2263.13 3145.83 2219.96C3203.78 2195.46 3261.79 2170.93 3321 2147.92C3484.29 2084.46 3656.08 2032.85 3859.16 2026.3C4061.61 2019.78 4205.35 2027.55 4315.7 2059.26C4426.28 2091.04 4503.06 2146.78 4571.84 2235.58C4640.49 2324.23 4701.29 2446 4779.91 2609.91C4788.6 2628.04 4797.51 2646.68 4806.68 2665.85C4880.45 2820.18 4970.67 3008.9 5095.46 3238.69C5319.47 3651.18 5686.87 3831.31 6055.18 3889.04C6423.67 3946.81 6793.18 3882.06 7020.78 3804.52L7023.43 3810.26C6794.81 3888.15 6423.84 3953.18 6053.65 3895.15C5683.26 3837.08 5313.77 3655.82 5088.7 3241.37C4963.83 3011.44 4873.56 2822.6 4799.78 2668.27C4790.62 2649.1 4781.71 2630.46 4773.02 2612.34C4694.33 2448.29 4633.78 2327.11 4565.58 2239.05C4497.5 2151.14 4421.91 2096.4 4313.15 2065.14C4204.15 2033.82 4061.57 2025.99 3859.27 2032.51C3657.6 2039.01 3486.86 2090.24 3324 2153.54C3265.28 2176.36 3207.48 2200.8 3149.61 2225.26C3047.24 2268.55 2944.63 2311.93 2836.21 2346.67C2666.19 2401.14 2481.26 2434.6 2258.57 2413.94C2035.95 2393.27 1775.85 2318.53 1455.39 2156.94C1134.38 1995.07 979.282 1784.29 912.698 1559.66C846.158 1335.17 868.058 1097 900.613 880.353C907.057 837.47 913.914 795.461 920.588 754.567C930.792 692.051 940.57 632.139 947.801 575.685C959.757 482.339 964.68 398.887 953.038 329.504C941.403 260.153 913.279 205.205 859.498 168.421C805.696 131.621 725.613 112.587 608.981 116.19C375.318 123.409 228.523 172.985 128.62 239.605C28.6435 306.273 -24.7869 390.262 -71.245 467.164C-73.5109 470.915 -75.7614 474.65 -78.0004 478.367C-98.6702 512.677 -118.37 545.379 -140.652 573.964C-165.377 605.683 -193.445 632.558 -229.9 651.168C-302.983 688.476 -408.356 691.901 -584.699 637.832C-867.148 551.229 -1019.68 416.646 -1095.42 283.362C-1171.1 150.172 -1169.97 18.486 -1145.51 -62.2748L-1138.32 -60.8798C-1162.38 18.5597 -1163.61 148.763 -1088.7 280.59C-1013.85 412.323 -862.847 545.885 -582.005 631.995C-406.292 685.87 -303.727 681.658 -233.655 645.886C-198.532 627.956 -171.217 601.931 -146.838 570.655C-124.803 542.388 -105.3 510.017 -84.5901 475.641C-82.3591 471.937 -80.1143 468.211 -77.8505 464.464C-31.3788 387.54 22.6765 302.402 124.08 234.782C225.556 167.113 374.035 117.239 608.879 109.984C726.498 106.351 808.601 125.497 864.272 163.576C919.966 201.669 948.607 258.297 960.386 328.502C972.16 398.674 967.147 482.757 955.177 576.206C947.939 632.719 938.131 692.818 927.913 755.428C921.241 796.31 914.394 838.263 907.974 880.988C875.433 1097.54 853.712 1334.73 919.901 1558.03Z" fill="#5C93B1" fill-opacity="0.22"/>
<path fill-rule="evenodd" clip-rule="evenodd" d="M981.616 1491.01C1047.88 1714.23 1202.02 1923.73 1521.53 2084.85C1841.59 2246.24 2100.85 2320.67 2322.26 2341.27C2543.61 2361.86 2727.4 2328.69 2896.65 2274.52C3004.81 2239.9 3106.77 2196.81 3208.89 2153.66C3266.86 2129.17 3324.88 2104.65 3384.12 2081.64C3547.46 2018.21 3719.32 1966.64 3922.49 1960.14C4125.04 1953.67 4268.86 1961.48 4379.27 1993.23C4489.91 2025.04 4566.75 2080.81 4635.59 2169.65C4704.32 2258.33 4765.2 2380.14 4843.91 2544.11C4852.62 2562.24 4861.54 2580.89 4870.71 2600.06C4944.58 2754.44 5034.92 2943.23 5159.86 3173.1C5384.13 3585.72 5751.78 3765.98 6120.29 3823.83C6488.99 3881.71 6858.65 3817.03 7086.33 3739.53L7088.99 3745.28C6860.28 3823.13 6489.15 3888.08 6118.76 3829.93C5748.17 3771.76 5378.43 3590.36 5153.09 3175.78C5028.08 2945.77 4937.69 2756.86 4863.82 2602.48C4854.64 2583.31 4845.72 2564.66 4837.02 2546.54C4758.24 2382.43 4697.61 2261.21 4629.34 2173.11C4561.19 2085.17 4485.54 2030.4 4376.72 1999.11C4267.66 1967.75 4125 1959.88 3922.61 1966.35C3720.84 1972.8 3550.03 2024 3387.11 2087.27C3328.37 2110.08 3270.56 2134.5 3212.67 2158.96C3110.27 2202.23 3007.62 2245.6 2899.16 2280.31C2729.07 2334.75 2544.07 2368.17 2321.27 2347.44C2098.52 2326.72 1838.27 2251.89 1517.59 2090.19C1196.37 1928.2 1041.12 1717.34 974.414 1492.64C907.757 1268.1 929.578 1029.88 962.067 813.201C968.498 770.311 975.341 728.297 982.003 687.397C992.188 624.87 1001.95 564.948 1009.16 508.484C1021.09 415.122 1025.98 331.656 1014.31 262.256C1002.64 192.888 974.484 137.921 920.662 101.114C866.817 64.2918 786.688 45.2337 669.999 48.8073C436.224 55.9663 289.376 105.515 189.45 172.122C89.4498 238.778 36.0249 322.769 -10.4271 399.674C-12.6947 403.428 -14.9467 407.167 -17.1874 410.887C-37.8522 445.196 -57.5476 477.896 -79.8279 506.478C-104.553 538.196 -132.624 565.07 -169.09 583.674C-242.195 620.971 -347.617 624.369 -524.066 570.244C-806.685 483.551 -959.345 348.902 -1035.17 215.573C-1110.93 82.3366 -1109.85 -49.3747 -1085.41 -130.146L-1078.22 -128.752C-1102.26 -49.3035 -1103.45 80.9258 -1028.45 212.799C-953.514 344.578 -802.384 478.207 -521.372 564.407C-345.551 618.339 -242.938 614.152 -172.844 578.392C-137.711 560.467 -110.393 534.444 -86.0134 503.169C-63.9753 474.898 -44.473 442.519 -23.7624 408.135C-21.5344 404.437 -19.2927 400.716 -17.0328 396.974C29.4327 320.048 83.4823 234.906 184.911 167.299C286.411 99.6419 434.944 49.7962 669.899 42.6011C787.575 38.9972 869.723 58.169 925.435 96.2682C981.169 134.383 1009.85 191.029 1021.66 261.251C1033.46 331.44 1028.48 415.539 1016.54 509.003C1009.32 565.527 999.528 625.636 989.328 688.257C982.669 729.145 975.835 771.103 969.428 813.834C936.953 1030.42 915.311 1267.65 981.616 1491.01Z" fill="#5C93B1" fill-opacity="0.22"/>
<path fill-rule="evenodd" clip-rule="evenodd" d="M1042.58 1429.03C1108.32 1652.71 1262.02 1862.49 1581.33 2023.46C1901.19 2184.72 2160.42 2258.89 2381.93 2279.15C2603.37 2299.42 2787.37 2265.83 2956.87 2211.22C3065.19 2176.32 3167.33 2132.95 3269.63 2089.5C3327.7 2064.84 3385.82 2040.16 3445.16 2016.99C3608.77 1953.11 3780.87 1901.1 3984.2 1894.23C4186.9 1887.39 4330.78 1894.97 4441.19 1926.6C4551.83 1958.31 4628.58 2014.09 4697.25 2103.04C4765.79 2191.84 4826.4 2313.86 4904.75 2478.12C4913.41 2496.28 4922.29 2514.96 4931.43 2534.18C5004.95 2688.83 5094.86 2877.95 5219.3 3108.2C5442.66 3521.51 5810.1 3701.59 6178.69 3758.94C6547.49 3816.33 6917.56 3750.84 7145.59 3672.74L7148.26 3678.48C6919.21 3756.93 6547.66 3822.7 6177.17 3765.05C5806.48 3707.37 5436.95 3526.15 5212.52 3110.87C5088.02 2880.48 4998.05 2691.23 4924.52 2536.58C4915.39 2517.37 4906.51 2498.69 4897.85 2480.54C4819.43 2316.13 4759.08 2194.71 4690.99 2106.5C4623.02 2018.44 4547.46 1963.67 4438.65 1932.48C4329.6 1901.24 4186.87 1893.6 3984.32 1900.44C3782.41 1907.25 3611.35 1958.89 3448.17 2022.61C3389.33 2045.58 3331.41 2070.17 3273.43 2094.79C3170.84 2138.35 3068.01 2182.01 2959.39 2217.01C2789.06 2271.89 2603.85 2305.72 2380.95 2285.33C2158.11 2264.94 1897.87 2190.37 1577.39 2028.8C1256.36 1866.96 1101.55 1655.81 1035.37 1430.64C969.246 1205.63 991.689 966.754 1024.75 749.45C1031.3 706.438 1038.25 664.301 1045.02 623.282C1055.37 560.574 1065.29 500.478 1072.66 443.854C1084.83 350.226 1089.94 266.531 1078.44 196.968C1066.94 127.437 1038.9 72.3778 985.14 35.5719C931.36 -1.24846 851.231 -20.2167 734.455 -16.4296C500.508 -8.84248 353.433 41.0925 253.265 108.052C153.023 175.061 99.3461 259.371 52.6672 336.558C50.3892 340.325 48.1268 344.076 45.8759 347.808C25.1096 382.245 5.31741 415.065 -17.0507 443.761C-41.871 475.603 -70.0265 502.593 -106.56 521.308C-179.802 558.827 -285.303 562.421 -461.736 508.461C-744.327 422.035 -896.747 287.298 -972.279 153.751C-1047.76 20.2975 -1046.34 -111.758 -1021.68 -192.778L-1014.49 -191.376C-1038.75 -111.672 -1040.27 18.9024 -965.56 150.988C-890.908 282.98 -740.023 416.69 -459.049 502.622C-283.255 556.386 -180.562 552.01 -110.326 516.031C-75.1192 497.996 -47.7131 471.854 -23.2364 440.452C-1.11264 412.07 18.4839 379.575 39.2945 345.069C41.535 341.354 43.79 337.615 46.0633 333.856C92.7556 256.647 147.056 171.193 248.718 103.234C350.453 35.2267 499.209 -15.0096 734.338 -22.6354C852.101 -26.4546 934.26 -7.37662 989.917 30.7286C1045.6 68.8485 1074.15 125.595 1085.79 195.978C1097.42 266.329 1092.22 350.655 1080.03 444.384C1072.66 501.068 1062.71 561.351 1052.35 624.153C1045.58 665.16 1038.63 707.24 1032.11 750.095C999.062 967.305 976.8 1205.2 1042.58 1429.03Z" fill="#5C93B1" fill-opacity="0.22"/>
<path fill-rule="evenodd" clip-rule="evenodd" d="M1112.05 1361.92C1178.72 1584.61 1333.13 1793.75 1652.63 1954.89C1972.68 2116.31 2231.8 2190.91 2453 2211.79C2674.15 2232.65 2857.65 2199.84 3026.58 2146.08C3134.54 2111.72 3236.29 2068.91 3338.21 2026.03C3396.05 2001.69 3453.96 1977.33 3513.08 1954.48C3676.09 1891.47 3847.64 1840.29 4050.57 1834.12C4252.87 1827.97 4396.53 1835.97 4506.89 1867.8C4617.47 1899.69 4694.34 1955.41 4763.29 2044.1C4832.13 2132.63 4893.2 2254.19 4972.19 2417.81C4980.92 2435.91 4989.87 2454.51 4999.08 2473.65C5073.2 2627.7 5163.84 2816.09 5289.14 3045.5C5514.05 3457.3 5881.67 3637.6 6249.88 3695.84C6618.29 3754.1 6987.38 3690.16 7214.63 3613.22L7217.27 3618.97C6988.99 3696.26 6618.43 3760.47 6248.34 3701.94C5878.06 3643.38 5508.35 3461.94 5282.37 3048.19C5157.01 2818.65 5066.31 2630.14 4992.19 2476.09C4982.98 2456.95 4974.03 2438.34 4965.3 2420.25C4886.25 2256.49 4825.43 2135.52 4757.05 2047.57C4688.78 1959.77 4613.1 1905.04 4504.33 1873.67C4395.32 1842.24 4252.82 1834.18 4050.67 1840.33C3849.15 1846.46 3678.65 1897.26 3516.06 1960.11C3457.44 1982.76 3399.74 2007.03 3341.98 2031.34C3239.78 2074.33 3137.34 2117.42 3029.08 2151.88C2859.31 2205.91 2674.59 2238.96 2452 2217.96C2229.47 2196.96 1969.36 2121.96 1648.7 1960.23C1327.49 1798.23 1171.96 1587.72 1104.85 1363.56C1037.78 1139.55 1059.06 902.035 1091.04 686.013C1097.37 643.253 1104.11 601.367 1110.68 560.592C1120.72 498.257 1130.33 438.519 1137.42 382.225C1149.13 289.144 1153.83 205.921 1142.02 136.7C1130.22 67.5129 1101.97 12.6569 1048.13 -24.1286C994.264 -60.93 914.181 -80.0541 797.635 -76.6645C564.144 -69.8743 417.576 -20.6843 317.914 45.583C218.18 111.898 165.002 195.569 118.771 272.187C116.515 275.926 114.274 279.65 112.046 283.354C91.4788 317.537 71.8751 350.119 49.6805 378.59C25.0511 410.184 -2.93172 436.943 -39.3198 455.443C-112.265 492.528 -217.559 495.757 -393.918 441.523C-676.397 354.654 -829.171 220.159 -905.194 87.0928C-981.165 -45.8807 -980.372 -177.222 -956.133 -257.734L-948.942 -256.348C-972.78 -177.164 -973.681 -47.3052 -898.487 84.309C-823.346 215.831 -672.098 349.31 -391.219 435.687C-215.478 489.732 -112.992 485.707 -43.0636 450.154C-8.01418 432.335 19.2131 406.429 43.4951 375.281C65.4412 347.129 84.8465 314.879 105.455 280.63C107.676 276.939 109.911 273.225 112.164 269.49C158.408 192.849 212.213 108.024 313.382 40.7544C414.624 -26.5632 562.881 -76.0468 797.549 -82.8713C915.082 -86.2894 997.173 -67.0487 1052.9 -28.9765C1108.65 9.11193 1137.42 65.6395 1149.37 135.683C1161.31 205.694 1156.52 289.55 1144.79 382.734C1137.71 439.087 1128.06 499.012 1118.01 561.442C1111.44 602.205 1104.71 644.035 1098.4 686.636C1066.43 902.562 1045.33 1139.09 1112.05 1361.92Z" fill="#5C93B1" fill-opacity="0.22"/>
<path fill-rule="evenodd" clip-rule="evenodd" d="M1172.82 1293.19C1239.08 1516.4 1393.22 1725.9 1712.73 1887.02C2032.79 2048.42 2292.05 2122.84 2513.46 2143.44C2734.81 2164.04 2918.6 2130.86 3087.85 2076.69C3196.01 2042.07 3297.97 1998.99 3400.09 1955.83C3458.06 1931.34 3516.08 1906.82 3575.32 1883.82C3738.66 1820.39 3910.52 1768.81 4113.7 1762.32C4316.25 1755.85 4460.06 1763.66 4570.47 1795.4C4681.11 1827.22 4757.95 1882.99 4826.8 1971.82C4895.52 2060.51 4956.4 2182.31 5035.11 2346.28C5043.82 2364.41 5052.74 2383.06 5061.92 2402.24C5135.78 2556.61 5226.12 2745.4 5351.06 2975.27C5575.33 3387.9 5942.99 3568.16 6311.49 3626C6680.19 3683.88 7049.85 3619.21 7277.53 3541.71L7280.19 3547.45C7051.48 3625.3 6680.35 3690.25 6309.96 3632.11C5939.37 3573.93 5569.63 3392.54 5344.29 2977.95C5219.28 2747.94 5128.89 2559.04 5055.02 2404.66C5045.84 2385.48 5036.92 2366.84 5028.22 2348.71C4949.44 2184.6 4888.81 2063.39 4820.54 1975.29C4752.39 1887.34 4676.75 1832.57 4567.92 1801.28C4458.86 1769.92 4316.2 1762.06 4113.81 1768.52C3912.04 1774.97 3741.23 1826.18 3578.32 1889.44C3519.57 1912.25 3461.76 1936.68 3403.87 1961.13C3301.47 2004.4 3198.82 2047.77 3090.36 2082.48C2920.27 2136.92 2735.27 2170.34 2512.47 2149.62C2289.73 2128.89 2029.47 2054.06 1708.79 1892.36C1387.57 1730.38 1232.32 1519.51 1165.61 1294.82C1098.96 1070.27 1120.78 832.055 1153.27 615.375C1159.7 572.485 1166.54 530.471 1173.2 489.571C1183.39 427.044 1193.15 367.122 1200.36 310.658C1212.29 217.296 1217.18 133.829 1205.51 64.4292C1193.84 -4.93852 1165.68 -59.9054 1111.86 -96.7121C1058.02 -133.534 977.888 -152.593 861.199 -149.019C627.425 -141.86 480.576 -92.3114 380.65 -25.7041C280.65 40.9515 227.225 124.943 180.773 201.847C178.506 205.602 176.254 209.341 174.013 213.061C153.348 247.369 133.653 280.07 111.373 308.652C86.6473 340.37 58.5762 367.244 22.1103 385.848C-50.9945 423.145 -156.416 426.543 -332.865 372.418C-615.485 285.725 -768.145 151.076 -843.966 17.7467C-919.734 -115.49 -918.651 -247.201 -894.211 -327.972L-887.022 -326.579C-911.062 -247.13 -912.247 -116.901 -837.253 14.9727C-762.314 146.752 -611.184 280.381 -330.172 366.58C-154.351 420.513 -51.7371 416.326 18.3569 380.565C53.4896 362.641 80.8075 336.618 105.187 305.343C127.225 277.072 146.728 244.693 167.438 210.309C169.666 206.611 171.908 202.89 174.168 199.148C220.633 122.221 274.683 37.0798 376.111 -30.5277C477.612 -98.1843 626.145 -148.03 861.1 -155.225C978.775 -158.829 1060.92 -139.657 1116.64 -101.558C1172.37 -63.4432 1201.05 -6.79736 1212.86 63.4245C1224.66 133.614 1219.68 217.713 1207.74 311.177C1200.52 367.701 1190.73 427.81 1180.53 490.431C1173.87 531.319 1167.04 573.277 1160.63 616.008C1128.15 832.593 1106.51 1069.83 1172.82 1293.19Z" fill="#5C93B1" fill-opacity="0.22"/>
<path fill-rule="evenodd" clip-rule="evenodd" d="M1242.21 1230.24C1308.35 1453.39 1462.34 1662.81 1781.63 1823.81C2101.48 1985.09 2360.58 2059.44 2581.87 2079.98C2803.11 2100.51 2986.82 2067.29 3156 2013.09C3264.12 1978.45 3366.05 1935.35 3468.14 1892.17C3526.09 1867.67 3584.09 1843.14 3643.31 1820.13C3806.6 1756.67 3978.39 1705.06 4181.47 1698.51C4383.92 1691.99 4527.66 1699.76 4638.01 1731.47C4748.59 1763.25 4825.37 1818.99 4894.14 1907.79C4962.8 1996.44 5023.6 2118.21 5102.22 2282.13C5110.91 2300.25 5119.82 2318.89 5128.99 2338.06C5202.76 2492.39 5292.98 2681.11 5417.77 2910.91C5641.78 3323.39 6009.18 3503.52 6377.48 3561.26C6745.98 3619.03 7115.48 3554.27 7343.08 3476.73L7345.74 3482.47C7117.12 3560.37 6746.14 3625.4 6375.96 3567.36C6005.57 3509.3 5636.08 3328.03 5411 2913.58C5286.14 2683.66 5195.86 2494.81 5122.09 2340.48C5112.93 2321.31 5104.02 2302.67 5095.33 2284.55C5016.64 2120.5 4956.09 1999.32 4887.89 1911.26C4819.81 1823.35 4744.22 1768.61 4635.45 1737.35C4526.46 1706.03 4383.88 1698.2 4181.58 1704.72C3979.91 1711.22 3809.17 1762.46 3646.31 1825.75C3587.58 1848.57 3529.79 1873.01 3471.92 1897.48C3369.55 1940.76 3266.93 1984.15 3158.51 2018.88C2988.49 2073.35 2803.56 2106.82 2580.88 2086.15C2358.25 2065.49 2098.16 1990.74 1777.7 1829.15C1456.69 1667.28 1301.59 1456.5 1235.01 1231.87C1168.47 1007.38 1190.37 769.211 1222.92 552.565C1229.37 509.682 1236.22 467.673 1242.9 426.779C1253.1 364.263 1262.88 304.351 1270.11 247.897C1282.07 154.551 1286.99 71.0993 1275.35 1.71629C1263.71 -67.6345 1235.59 -122.583 1181.81 -159.367C1128 -196.167 1047.92 -215.201 931.289 -211.598C697.626 -204.379 550.831 -154.803 450.928 -88.1829C350.952 -21.5145 297.521 62.4743 251.063 139.376C248.797 143.127 246.547 146.862 244.308 150.579C223.638 184.889 203.938 217.591 181.656 246.176C156.931 277.895 128.863 304.77 92.4084 323.38C19.3255 360.688 -86.0474 364.113 -262.39 310.044C-544.84 223.441 -697.375 88.8581 -773.109 -44.4257C-848.79 -177.616 -847.659 -309.302 -823.2 -390.063L-816.011 -388.668C-840.069 -309.228 -841.302 -179.025 -766.396 -47.198C-691.543 84.5351 -540.538 218.097 -259.697 304.207C-83.9838 358.082 18.5811 353.87 88.6532 318.098C123.776 300.168 151.091 274.143 175.47 242.867C197.505 214.6 217.008 182.229 237.718 147.853C239.949 144.15 242.194 140.423 244.458 136.676C290.929 59.7525 344.985 -25.3854 446.388 -93.0059C547.864 -160.675 696.344 -210.549 931.187 -217.804C1048.81 -221.437 1130.91 -202.291 1186.58 -164.212C1242.27 -126.119 1270.92 -69.4909 1282.69 0.713752C1294.47 70.8862 1289.45 154.969 1277.49 248.418C1270.25 304.931 1260.44 365.03 1250.22 427.64C1243.55 468.522 1236.7 510.475 1230.28 553.2C1197.74 769.751 1176.02 1006.94 1242.21 1230.24Z" fill="#5C93B1" fill-opacity="0.22"/>
<path fill-rule="evenodd" clip-rule="evenodd" d="M1303.92 1163.23C1370.18 1386.44 1524.32 1595.94 1843.84 1757.06C2163.9 1918.46 2423.15 1992.89 2644.56 2013.49C2865.92 2034.08 3049.71 2000.9 3218.95 1946.73C3327.11 1912.11 3429.07 1869.03 3531.2 1825.88C3589.17 1801.38 3647.19 1776.87 3706.43 1753.86C3869.77 1690.43 4041.62 1638.85 4244.8 1632.36C4447.35 1625.89 4591.16 1633.7 4701.58 1665.45C4812.22 1697.26 4889.06 1753.03 4957.9 1841.87C5026.62 1930.55 5087.5 2052.36 5166.22 2216.33C5174.92 2234.46 5183.84 2253.1 5193.02 2272.28C5266.89 2426.66 5357.22 2615.44 5482.16 2845.32C5706.43 3257.94 6074.09 3438.2 6442.59 3496.05C6811.3 3553.92 7180.95 3489.25 7408.64 3411.75L7411.29 3417.5C7182.59 3495.35 6811.46 3560.29 6441.06 3502.15C6070.48 3443.98 5700.74 3262.58 5475.4 2847.99C5350.38 2617.99 5259.99 2429.08 5186.12 2274.7C5176.95 2255.53 5168.03 2236.88 5159.33 2218.76C5080.54 2054.65 5019.92 1933.43 4951.65 1845.33C4883.5 1757.39 4807.85 1702.62 4699.02 1671.33C4589.96 1639.97 4447.31 1632.1 4244.91 1638.57C4043.14 1645.02 3872.34 1696.22 3709.42 1759.48C3650.68 1782.3 3592.87 1806.72 3534.98 1831.18C3432.57 1874.44 3329.92 1917.81 3221.46 1952.53C3051.38 2006.97 2866.37 2040.39 2643.57 2019.66C2420.83 1998.93 2160.58 1924.11 1839.9 1762.4C1518.67 1600.42 1363.42 1389.55 1296.72 1164.86C1230.06 940.315 1251.88 702.099 1284.37 485.418C1290.8 442.529 1297.65 400.514 1304.31 359.614C1314.49 297.088 1324.25 237.165 1331.47 180.702C1343.4 87.3398 1348.29 3.87296 1336.62 -65.527C1324.95 -134.895 1296.79 -189.862 1242.97 -226.668C1189.12 -263.491 1108.99 -282.549 992.305 -278.975C758.53 -271.816 611.682 -222.268 511.756 -155.66C411.756 -89.0047 358.331 -5.01354 311.879 71.8911C309.611 75.6459 307.359 79.3848 305.119 83.1048C284.454 117.413 264.758 150.113 242.478 178.695C217.753 210.414 189.682 237.287 153.216 255.892C80.111 293.189 -25.3107 296.587 -201.76 242.462C-484.379 155.769 -637.039 21.1199 -712.86 -112.21C-788.629 -245.446 -787.546 -377.157 -763.106 -457.928L-755.916 -456.535C-779.956 -377.086 -781.141 -246.857 -706.148 -114.984C-631.208 16.7959 -480.078 150.425 -199.066 236.624C-23.2453 290.557 79.3684 286.369 149.462 250.609C184.595 232.685 211.913 206.661 236.293 175.387C258.331 147.115 277.833 114.737 298.543 80.3529C300.771 76.6549 303.013 72.9336 305.273 69.1914C351.739 -7.73485 405.788 -92.8764 507.217 -160.484C608.717 -228.141 757.25 -277.986 992.205 -285.181C1109.88 -288.785 1192.03 -269.614 1247.74 -231.514C1303.48 -193.399 1332.15 -136.754 1343.96 -66.5318C1355.77 3.65757 1350.78 87.7564 1338.84 181.221C1331.62 237.744 1321.83 297.854 1311.63 360.475C1304.97 401.362 1298.14 443.321 1291.73 486.051C1259.26 702.637 1237.62 939.869 1303.92 1163.23Z" fill="#5C93B1" fill-opacity="0.22"/>
</g>
<defs>
<clipPath id="clip0_324_3263">
<rect width="4123.42" height="3223.84" fill="white" transform="translate(50.5605) rotate(0.897076)"/>
</clipPath>
</defs>
</svg>
