<svg width="1140" height="896" viewBox="0 0 1140 896" fill="none" xmlns="http://www.w3.org/2000/svg">
<g clip-path="url(#clip0_303_3262)">
<path d="M824.003 914.364C752.243 932.472 595.264 931.011 541.429 780.3C474.136 591.912 498.516 559.597 375.469 548.781C252.423 537.964 192.445 660.12 9.56888 524.852C-173.307 389.583 58.4768 170.489 -83.929 157.754C-226.335 145.019 -170.51 275.404 -273.446 224.963C-355.794 184.61 -356.193 121.252 -346.098 94.6162" stroke="#5C93B1" stroke-opacity="0.22"/>
<path d="M834.663 904.873C763.225 922.649 606.799 920.667 552.596 770.535C484.844 582.87 509.017 550.8 386.368 539.625C263.718 528.449 204.406 649.788 21.6786 514.586C-161.049 379.385 69.099 162.174 -72.848 149.025C-214.795 135.876 -158.685 265.791 -261.442 215.258C-343.648 174.832 -344.279 111.791 -334.32 85.3239" stroke="#5C93B1" stroke-opacity="0.22"/>
<path d="M846.01 894.577C774.25 912.686 617.271 911.225 563.436 760.514C496.143 572.125 520.523 539.811 397.476 528.995C274.43 518.178 214.452 640.334 31.5757 505.065C-151.3 369.797 80.4837 150.703 -61.9222 137.968C-204.328 125.233 -148.503 255.618 -251.439 205.177C-333.788 164.824 -334.186 101.465 -324.091 74.8301" stroke="#5C93B1" stroke-opacity="0.22"/>
<path d="M855.893 884.487C784.455 902.263 628.029 900.282 573.827 750.15C506.074 562.484 530.247 530.415 407.598 519.239C284.949 508.064 225.637 629.402 42.9088 494.2C-139.819 358.999 90.3292 141.789 -51.6178 128.639C-193.565 115.49 -137.455 245.405 -240.212 194.872C-322.418 154.446 -323.049 91.4053 -313.089 64.9381" stroke="#5C93B1" stroke-opacity="0.22"/>
<path d="M867.383 874.022C795.796 891.973 639.126 890.278 585.146 739.885C517.67 551.895 541.947 519.703 419.127 508.729C296.306 497.754 236.652 619.494 53.9124 484.307C-128.828 349.12 102.129 130.96 -40.0155 118.043C-182.16 105.125 -126.227 235.248 -229.043 184.785C-311.296 144.414 -311.8 81.2231 -301.77 54.6739" stroke="#5C93B1" stroke-opacity="0.22"/>
<path d="M878.244 864.297C806.484 882.406 649.505 880.945 595.67 730.234C528.377 541.845 552.756 509.531 429.71 498.714C306.664 487.898 246.686 610.054 63.8096 474.785C-119.067 339.517 112.718 120.423 -29.6883 107.688C-172.094 94.9529 -116.269 225.338 -219.205 174.897C-301.554 134.544 -301.952 71.1851 -291.857 44.5498" stroke="#5C93B1" stroke-opacity="0.22"/>
<path d="M888.903 854.807C817.442 872.565 660.95 870.533 606.672 720.342C538.824 532.604 562.996 500.533 440.292 489.315C317.588 478.097 258.294 599.45 75.4426 464.153C-107.409 328.856 122.758 111.66 -19.2528 98.461C-161.264 85.2624 -105.084 215.231 -207.902 164.652C-290.156 124.188 -290.81 61.1296 -280.856 34.6584" stroke="#5C93B1" stroke-opacity="0.22"/>
<path d="M899.474 843.91C827.737 862.037 670.824 860.627 617.065 709.974C549.867 521.659 574.248 489.346 451.256 478.572C328.265 467.798 268.268 589.939 85.5163 454.767C-97.2359 319.594 134.529 100.485 -7.81278 87.7996C-150.155 75.114 -94.399 205.445 -197.274 155.051C-279.575 114.736 -279.95 51.3944 -269.851 24.7631" stroke="#5C93B1" stroke-opacity="0.22"/>
<path d="M910.62 833.85C839.033 851.801 682.363 850.106 628.383 699.713C560.907 511.723 585.184 479.531 462.364 468.557C339.544 457.582 279.889 579.322 97.1494 444.135C-85.5905 308.948 145.366 90.7883 3.22161 77.8708C-138.923 64.9533 -82.9899 195.076 -185.806 144.613C-268.059 104.242 -268.563 41.0512 -258.533 14.502" stroke="#5C93B1" stroke-opacity="0.22"/>
<path d="M921.624 823.957C850.013 841.89 693.278 840.143 639.222 689.692C571.651 501.629 595.927 469.436 473.052 458.419C350.176 447.402 290.541 569.156 107.677 433.873C-75.1872 298.591 155.788 80.4454 13.58 67.4787C-128.628 54.512 -72.6258 184.689 -175.503 134.178C-257.804 93.7702 -258.331 30.5617 -248.306 4.00843" stroke="#5C93B1" stroke-opacity="0.22"/>
<path d="M931.708 813.631C859.971 831.758 703.058 830.348 649.299 679.695C582.1 491.38 606.481 459.066 483.49 448.292C360.498 437.519 300.502 559.66 117.75 424.487C-65.0023 289.315 166.763 70.2059 24.4209 57.5203C-117.921 44.8347 -62.1654 175.166 -165.041 124.772C-247.341 84.4565 -247.717 21.1151 -237.617 -5.51621" stroke="#5C93B1" stroke-opacity="0.22"/>
<path d="M943.144 804.742C871.683 822.5 715.191 820.468 660.913 670.277C593.065 482.539 617.237 450.468 494.533 439.25C371.829 428.032 312.535 549.384 129.683 414.087C-53.1683 278.79 176.999 61.5942 34.9879 48.3956C-107.023 35.197 -50.8432 165.166 -153.661 114.586C-235.915 74.1225 -236.57 11.0642 -226.615 -15.407" stroke="#5C93B1" stroke-opacity="0.22"/>
<path d="M953.858 793.677C882.247 811.61 725.512 809.864 671.455 659.413C603.885 471.35 628.161 439.157 505.285 428.14C382.41 417.123 322.774 538.877 139.91 403.594C-42.9536 268.311 188.022 50.1661 45.8136 37.1994C-96.3947 24.2327 -40.3922 154.409 -143.269 103.899C-225.571 63.4909 -226.097 0.282383 -216.072 -26.2709" stroke="#5C93B1" stroke-opacity="0.22"/>
<path d="M964.861 783.784C893.274 801.735 736.604 800.039 682.624 649.647C615.148 461.657 639.425 429.465 516.605 418.49C393.784 407.516 334.13 529.255 151.39 394.068C-31.3498 258.881 199.607 40.7219 57.4623 27.8044C-84.6823 14.8869 -28.7492 145.01 -131.565 94.5466C-213.818 54.1759 -214.322 -9.01522 -204.292 -35.5644" stroke="#5C93B1" stroke-opacity="0.22"/>
<path d="M975.864 773.891C904.254 791.824 747.518 790.078 693.462 639.627C625.892 451.563 650.167 419.371 527.292 408.354C404.417 397.337 344.781 519.091 161.917 383.808C-20.9468 248.525 210.029 30.38 67.8205 17.4133C-74.3878 4.44653 -18.3854 134.623 -121.262 84.113C-203.564 43.7048 -204.09 -19.5038 -194.066 -46.057" stroke="#5C93B1" stroke-opacity="0.22"/>
</g>
<defs>
<clipPath id="clip0_303_3262">
<rect width="1140" height="896" fill="white"/>
</clipPath>
</defs>
</svg>
