<svg width="1019" height="905" viewBox="0 0 1019 905" fill="none" xmlns="http://www.w3.org/2000/svg">
<g clip-path="url(#clip0_303_3262)">
<path d="M887.293 882.709C826.309 900.273 692.903 898.856 647.153 752.674C589.964 569.947 610.683 538.604 506.114 528.112C401.546 517.621 350.574 636.106 195.16 504.902C39.7465 373.699 236.724 161.189 115.703 148.836C-5.31811 136.484 42.124 262.951 -45.3543 214.026C-115.337 174.886 -115.675 113.431 -107.097 87.5959" stroke="#5C93B1" stroke-opacity="0.22"/>
<path d="M896.352 873.503C835.641 890.745 702.705 888.823 656.642 743.203C599.064 561.177 619.607 530.071 515.376 519.231C411.145 508.392 360.739 626.083 205.452 494.945C50.1636 363.807 245.751 153.124 125.12 140.369C4.48867 127.615 52.173 253.626 -35.1534 204.612C-105.015 165.401 -105.551 104.254 -97.0871 78.5825" stroke="#5C93B1" stroke-opacity="0.22"/>
<path d="M905.995 863.518C845.011 881.082 711.605 879.665 665.855 733.483C608.667 550.756 629.385 519.412 524.817 508.921C420.248 498.43 369.277 616.914 213.863 485.711C58.4486 354.507 255.426 141.997 134.405 129.645C13.384 117.293 60.8262 243.759 -26.6522 194.834C-96.6348 155.694 -96.9732 94.2394 -88.3946 68.4045" stroke="#5C93B1" stroke-opacity="0.22"/>
<path d="M914.394 853.73C853.684 870.971 720.747 869.05 674.685 723.429C617.106 541.403 637.649 510.298 533.418 499.458C429.187 488.618 378.782 606.31 223.494 475.172C68.2059 344.033 263.793 133.35 143.162 120.596C22.5309 107.842 70.2152 233.853 -17.1112 184.839C-86.9723 145.627 -87.5091 84.4808 -79.0449 58.8091" stroke="#5C93B1" stroke-opacity="0.22"/>
<path d="M924.159 843.58C863.321 860.991 730.179 859.347 684.304 713.474C626.961 531.133 647.593 499.909 543.216 489.264C438.839 478.619 388.143 596.7 232.845 465.576C77.5467 334.451 273.821 122.848 153.022 110.318C32.2231 97.7889 79.7568 224.002 -7.61978 175.055C-77.521 135.897 -77.9491 74.6052 -69.4254 48.8538" stroke="#5C93B1" stroke-opacity="0.22"/>
<path d="M933.388 834.147C872.404 851.712 738.999 850.295 693.248 704.113C636.06 521.385 656.779 490.042 552.21 479.551C447.641 469.059 396.67 587.544 241.256 456.341C85.8419 325.137 282.819 112.627 161.798 100.275C40.7774 87.9228 88.2195 214.389 0.741151 165.464C-69.2415 126.324 -69.5799 64.8693 -61.0013 39.0343" stroke="#5C93B1" stroke-opacity="0.22"/>
<path d="M942.447 824.943C881.717 842.167 748.725 840.196 702.598 694.518C644.939 512.422 665.481 481.315 561.203 470.434C456.925 459.553 406.535 577.259 251.142 446.028C95.7487 314.796 291.352 104.127 170.667 91.3253C49.9814 78.5233 97.7247 204.586 10.3468 155.527C-59.5556 116.279 -60.1116 55.1157 -51.6518 29.44" stroke="#5C93B1" stroke-opacity="0.22"/>
<path d="M951.43 814.373C890.466 831.955 757.116 830.587 711.43 684.462C654.323 501.806 675.042 470.463 570.52 460.013C465.998 449.563 415.011 568.034 259.703 436.923C104.394 305.813 301.356 93.2884 180.389 80.984C59.4218 68.6796 106.805 195.094 19.3782 146.215C-50.5632 107.111 -50.8824 45.6728 -42.2994 19.8419" stroke="#5C93B1" stroke-opacity="0.22"/>
<path d="M960.903 804.615C900.066 822.027 766.923 820.382 721.048 674.509C663.705 492.168 684.337 460.944 579.96 450.299C475.583 439.654 424.887 557.735 269.589 426.611C114.291 295.486 310.565 83.8828 189.766 71.3534C68.9672 58.8241 116.501 185.037 29.1244 136.09C-40.7769 96.9325 -41.2049 35.6403 -32.6813 9.88893" stroke="#5C93B1" stroke-opacity="0.22"/>
<path d="M970.254 795.019C909.397 812.413 776.198 810.719 730.259 664.79C672.836 482.378 693.466 451.153 589.043 440.467C484.62 429.78 433.939 547.876 278.536 416.658C123.132 285.441 319.422 73.8513 198.569 61.2742C77.7161 48.6972 125.309 174.962 37.8806 125.97C-32.0619 86.7757 -32.5091 25.4666 -23.9899 -0.288691" stroke="#5C93B1" stroke-opacity="0.22"/>
<path d="M978.823 785.004C917.859 802.586 784.51 801.218 738.824 655.093C681.716 472.436 702.436 441.094 597.914 430.644C493.391 420.194 442.405 538.665 287.096 407.554C131.787 276.444 328.749 63.9193 207.782 51.6149C86.8151 39.3105 134.198 165.725 46.7715 116.845C-23.1699 77.7416 -23.4891 16.3037 -14.9061 -9.52729" stroke="#5C93B1" stroke-opacity="0.22"/>
<path d="M988.542 776.382C927.812 793.606 794.82 791.635 748.693 645.958C691.034 463.861 711.576 432.754 607.298 421.874C503.02 410.993 452.631 528.698 297.238 397.467C141.844 266.236 337.448 55.5667 216.762 42.7647C96.0771 29.9627 143.82 156.026 56.4425 106.966C-13.4599 67.7185 -14.0159 6.55517 -5.55614 -19.1205" stroke="#5C93B1" stroke-opacity="0.22"/>
<path d="M997.647 765.649C936.79 783.043 803.591 781.349 757.653 635.42C700.229 453.008 720.859 421.783 616.436 411.096C512.013 400.41 461.332 518.505 305.929 387.288C150.525 256.071 346.815 44.4812 225.962 31.9041C105.109 19.327 152.702 145.592 65.2737 96.5995C-4.66881 57.4056 -5.11603 -3.90351 3.40317 -29.6588" stroke="#5C93B1" stroke-opacity="0.22"/>
<path d="M1007 756.053C946.161 773.465 813.018 771.82 767.144 625.948C709.801 443.606 730.432 412.382 626.056 401.737C521.679 391.093 470.983 509.174 315.685 378.049C160.386 246.925 356.661 35.3212 235.862 22.7919C115.063 10.2626 162.596 136.475 75.2198 87.5285C5.31855 48.3709 4.89053 -12.9212 13.4142 -38.6726" stroke="#5C93B1" stroke-opacity="0.22"/>
<path d="M1016.35 746.458C955.492 763.852 822.294 762.158 776.355 616.228C718.931 433.816 739.562 402.591 635.138 391.905C530.715 381.219 480.034 499.314 324.631 368.097C169.227 236.879 365.518 25.2898 244.664 12.7127C123.811 0.135632 171.404 126.4 83.9758 77.4081C14.0333 38.2142 13.5861 -23.0949 22.1053 -48.8502" stroke="#5C93B1" stroke-opacity="0.22"/>
</g>
<defs>
<clipPath id="clip0_303_3262">
<rect width="1019" height="905" fill="white"/>
</clipPath>
</defs>
</svg>
