<svg width="3352" height="2549" viewBox="0 0 3352 2549" fill="none" xmlns="http://www.w3.org/2000/svg">
<g clip-path="url(#clip0_324_3263)">
<path d="M3043.35 2460.92C2865.17 2510.72 2473.89 2512.36 2334.23 2120.54C2159.65 1630.77 2219.23 1545.51 1912.18 1521.54C1605.12 1497.56 1460.1 1818.74 999.398 1471.76C538.698 1124.77 1108.37 544.386 752.999 516.072C397.627 487.759 541.508 826.409 283.13 698.227C76.4269 595.681 73.125 430.188 97.312 360.26" stroke="#5C93B1" stroke-opacity="0.22"/>
<path d="M3069.57 2435.76C2892.18 2484.68 2502.26 2484.94 2361.7 2094.65C2186 1606.79 2245.08 1522.17 1939 1497.25C1632.92 1472.32 1489.53 1791.34 1029.2 1444.52C568.874 1097.7 1134.54 522.3 780.295 492.887C426.051 463.475 570.626 800.889 312.689 672.46C106.34 569.717 102.468 405.064 126.326 335.58" stroke="#5C93B1" stroke-opacity="0.22"/>
<path d="M3097.47 2408.47C2919.29 2458.27 2528.01 2459.91 2388.35 2068.09C2213.77 1578.32 2273.35 1493.07 1966.3 1469.09C1659.25 1445.11 1514.22 1766.3 1053.52 1419.31C592.821 1072.32 1162.49 491.937 807.122 463.623C451.75 435.31 595.632 773.96 337.253 645.778C130.55 543.232 127.248 377.739 151.435 307.811" stroke="#5C93B1" stroke-opacity="0.22"/>
<path d="M3121.74 2381.77C2944.35 2430.69 2554.42 2430.95 2413.87 2040.66C2238.17 1552.79 2297.25 1468.18 1991.17 1443.25C1685.09 1418.33 1541.7 1737.35 1081.37 1390.53C621.042 1043.71 1186.71 468.308 832.462 438.895C478.219 409.482 622.794 746.896 364.857 618.468C158.508 515.725 154.636 351.071 178.494 281.587" stroke="#5C93B1" stroke-opacity="0.22"/>
<path d="M3149.99 2354.03C2972.24 2403.42 2581.72 2404.43 2441.7 2013.46C2266.69 1524.73 2326.02 1439.8 2019.52 1415.4C1713.03 1391 1568.79 1711.09 1108.43 1364.31C648.077 1017.52 1215.72 439.615 860.994 410.815C506.266 382.015 650.407 719.979 392.326 591.733C185.861 489.137 182.303 324.086 206.332 254.385" stroke="#5C93B1" stroke-opacity="0.22"/>
<path d="M3176.7 2328.25C2998.52 2378.05 2607.24 2379.69 2467.58 1987.88C2293 1498.11 2352.58 1412.85 2045.53 1388.87C1738.48 1364.9 1593.45 1686.08 1132.75 1339.09C672.051 992.098 1241.72 411.718 886.352 383.405C530.98 355.091 674.862 693.741 416.483 565.559C209.78 463.013 206.479 297.52 230.665 227.592" stroke="#5C93B1" stroke-opacity="0.22"/>
<path d="M3202.92 2303.09C3025.47 2351.96 2635.39 2352.1 2494.64 1961.66C2318.7 1473.61 2377.78 1388.99 2071.56 1363.95C1765.35 1338.92 1622 1657.98 1161.36 1310.91C700.716 963.845 1266.43 388.48 912.024 358.941C557.619 329.402 702.369 666.954 444.28 538.405C237.809 435.566 233.879 270.868 257.724 201.373" stroke="#5C93B1" stroke-opacity="0.22"/>
<path d="M3228.87 2274.26C3050.75 2324.1 2659.64 2325.88 2520.17 1934.21C2345.83 1444.63 2405.41 1359.37 2098.5 1335.51C1791.58 1311.64 1646.51 1632.78 1186.12 1286.04C725.734 939.297 1295.36 358.88 940.148 330.692C584.937 302.505 728.644 641.018 470.418 512.956C263.838 410.506 260.593 245.058 284.793 175.14" stroke="#5C93B1" stroke-opacity="0.22"/>
<path d="M3256.28 2247.59C3078.53 2296.97 2688.01 2297.99 2547.99 1907.01C2372.98 1418.29 2432.31 1333.35 2125.81 1308.96C1819.31 1284.56 1675.08 1604.64 1214.72 1257.86C754.366 911.081 1322.01 333.172 967.283 304.372C612.555 275.572 756.696 613.535 498.615 485.29C292.15 382.694 288.592 217.643 312.621 147.942" stroke="#5C93B1" stroke-opacity="0.22"/>
<path d="M3283.35 2221.36C3105.53 2270.7 2714.85 2271.58 2574.64 1880.46C2399.39 1391.54 2458.72 1306.61 2152.08 1282.1C1845.45 1257.59 1701.26 1577.71 1240.59 1230.69C779.919 883.66 1347.61 305.788 992.723 276.861C637.835 247.935 782.151 586.036 523.917 457.671C317.33 354.978 313.714 189.882 337.73 120.171" stroke="#5C93B1" stroke-opacity="0.22"/>
<path d="M3308.11 2194.04C3129.98 2243.88 2738.87 2245.66 2599.4 1853.99C2425.06 1364.41 2484.64 1279.15 2177.73 1255.29C1870.81 1231.42 1725.74 1552.57 1265.35 1205.82C804.967 859.078 1374.59 278.661 1019.38 250.473C664.169 222.286 807.876 560.799 549.651 432.737C343.07 330.287 339.825 164.839 364.025 94.9217" stroke="#5C93B1" stroke-opacity="0.22"/>
<path d="M3336.28 2170.42C3158.83 2219.29 2768.74 2219.43 2627.99 1828.99C2452.06 1340.94 2511.13 1256.32 2204.92 1231.28C1898.7 1206.25 1755.35 1525.31 1294.71 1178.24C834.07 831.176 1399.78 255.81 1045.38 226.271C690.973 196.732 835.723 534.284 577.634 405.735C371.162 302.896 367.233 138.198 391.077 68.7034" stroke="#5C93B1" stroke-opacity="0.22"/>
<path d="M3362.58 2141.14C3184.76 2190.48 2794.08 2191.37 2653.88 1800.24C2478.62 1311.33 2537.95 1226.39 2231.31 1201.88C1924.68 1177.38 1780.49 1497.5 1319.82 1150.47C859.149 803.442 1426.84 225.569 1071.95 196.643C717.065 167.716 861.381 505.817 603.147 377.452C396.56 274.759 392.945 109.664 416.96 39.9525" stroke="#5C93B1" stroke-opacity="0.22"/>
<path d="M3389.64 2114.92C3211.88 2164.3 2821.37 2165.32 2681.35 1774.34C2506.33 1285.62 2565.67 1200.68 2259.17 1176.29C1952.67 1151.89 1808.44 1471.97 1348.08 1125.19C887.723 778.41 1455.37 200.5 1100.64 171.7C745.913 142.9 890.054 480.863 631.973 352.618C425.508 250.022 421.949 84.971 445.978 15.2702" stroke="#5C93B1" stroke-opacity="0.22"/>
<path d="M3416.7 2088.69C3238.89 2138.03 2848.2 2138.92 2708 1747.79C2532.74 1258.88 2592.07 1173.94 2285.43 1149.43C1978.8 1124.93 1834.61 1445.05 1373.94 1098.02C913.272 750.994 1480.96 173.122 1126.08 144.195C771.188 115.269 915.504 453.37 657.27 325.005C450.683 222.312 447.068 57.2165 471.083 -12.4947" stroke="#5C93B1" stroke-opacity="0.22"/>
</g>
<defs>
<clipPath id="clip0_324_3263">
<rect width="3344.76" height="2539.47" fill="white" transform="translate(7.23438 0.34375) rotate(0.157452)"/>
</clipPath>
</defs>
</svg>
