<svg width="32" height="32" viewBox="0 0 32 32" fill="none" xmlns="http://www.w3.org/2000/svg">
<path d="M15.9998 18.32C14.9598 18.32 13.9731 17.92 13.2131 17.1733C12.2398 16.2 11.8531 14.8 12.1731 13.4267C12.5064 12.0267 13.6264 10.9067 15.0264 10.5733C16.3864 10.24 17.7864 10.6267 18.7731 11.6134C19.7598 12.6 20.1331 13.9867 19.8131 15.36C19.4798 16.76 18.3598 17.88 16.9598 18.2133C16.6398 18.28 16.3198 18.32 15.9998 18.32ZM15.9998 12.4534C15.8398 12.4534 15.6664 12.48 15.5064 12.52C14.8398 12.68 14.2931 13.2266 14.1331 13.8933C13.9598 14.5866 14.1464 15.2667 14.6398 15.7467C15.1331 16.24 15.7998 16.4133 16.5064 16.2533C17.1731 16.0933 17.7198 15.5466 17.8798 14.88C18.0531 14.1866 17.8664 13.5067 17.3731 13.0267C16.9998 12.6534 16.5198 12.4534 15.9998 12.4534Z" fill="#07A1E3"/>
<path d="M8.02645 23.9603C7.78645 23.9603 7.5331 23.867 7.34644 23.6937C4.75977 21.2937 3.27979 17.907 3.27979 14.387C3.27979 7.37363 8.98644 1.66699 15.9998 1.66699C23.0131 1.66699 28.7198 7.37363 28.7198 14.387C28.7198 17.9336 27.2931 21.2136 24.7064 23.6536C24.3064 24.027 23.6664 24.0137 23.2931 23.6137C22.9198 23.2137 22.9331 22.5737 23.3331 22.2004C25.5198 20.147 26.7198 17.387 26.7198 14.4003C26.7198 8.49364 21.9064 3.68034 15.9998 3.68034C10.0931 3.68034 5.27979 8.49364 5.27979 14.4003C5.27979 17.4136 6.49311 20.187 8.70644 22.2403C9.10644 22.6136 9.13312 23.2536 8.75979 23.6536C8.55979 23.8536 8.29311 23.9603 8.02645 23.9603Z" fill="#07A1E3"/>
<path d="M21.3334 20.4001C21.0934 20.4001 20.84 20.3067 20.6534 20.1334C20.2534 19.76 20.2267 19.1201 20.6134 18.7201C21.72 17.5467 22.3334 16.0001 22.3334 14.4001C22.3334 10.9067 19.4933 8.08008 16.0133 8.08008C12.5333 8.08008 9.69336 10.9201 9.69336 14.4001C9.69336 16.0134 10.3067 17.5467 11.4134 18.7201C11.7867 19.1201 11.7734 19.76 11.3734 20.1334C10.9734 20.5067 10.3334 20.4934 9.96002 20.0934C8.50669 18.5468 7.69336 16.5201 7.69336 14.4001C7.69336 9.8134 11.4267 6.08008 16.0133 6.08008C20.6 6.08008 24.3334 9.8134 24.3334 14.4001C24.3334 16.5201 23.5334 18.5468 22.0667 20.0934C21.8667 20.2934 21.6 20.4001 21.3334 20.4001Z" fill="#07A1E3"/>
<path d="M17.9204 30.3328H14.0937C12.5737 30.3328 11.227 29.4795 10.5737 28.1195C9.92038 26.7595 10.0937 25.1728 11.0404 23.9862L12.9604 21.5995C13.7071 20.6662 14.8137 20.1328 16.0137 20.1328C17.2137 20.1328 18.3204 20.6662 19.0671 21.5995L20.9871 23.9862C21.9337 25.1728 22.1204 26.7595 21.4537 28.1195C20.7737 29.4795 19.4271 30.3328 17.9204 30.3328ZM14.5071 22.8395L12.5871 25.2262C12.1204 25.8128 12.0271 26.5728 12.3604 27.2395C12.6804 27.9195 13.3337 28.3195 14.0804 28.3195H17.9071C18.6537 28.3195 19.3071 27.9195 19.6271 27.2395C19.9471 26.5595 19.8671 25.8128 19.4004 25.2262L17.4804 22.8395C16.7604 21.9329 15.2404 21.9329 14.5071 22.8395Z" fill="#07A1E3"/>
</svg>
