<svg width="32" height="32" viewBox="0 0 32 32" fill="none" xmlns="http://www.w3.org/2000/svg">
<path d="M9.94702 25.7871H7.38696C3.46696 25.5071 1.70703 22.4938 1.70703 19.8138C1.70703 17.1338 3.46698 14.1071 7.32031 13.8404C7.86698 13.7871 8.34696 14.2138 8.38696 14.7738C8.42696 15.3204 8.01369 15.8004 7.45369 15.8404C4.86703 16.0271 3.70703 17.9738 3.70703 19.8271C3.70703 21.6804 4.86703 23.6271 7.45369 23.8138H9.94702C10.4937 23.8138 10.947 24.2671 10.947 24.8138C10.947 25.3604 10.4937 25.7871 9.94702 25.7871Z" fill="#07A1E3"/>
<path d="M22.2267 25.787C22.2 25.787 22.1867 25.787 22.16 25.787C21.6134 25.787 21.1067 25.3337 21.1067 24.787C21.1067 24.2137 21.5334 23.787 22.0934 23.787C23.7334 23.787 25.2001 23.2137 26.3467 22.187C28.4267 20.3737 28.56 17.7603 28 15.9203C27.44 14.0937 25.88 12.0003 23.16 11.667C22.72 11.6137 22.3733 11.2803 22.2933 10.8403C21.76 7.64033 20.0401 5.427 17.4267 4.627C14.7334 3.787 11.5867 4.61366 9.62668 6.66699C7.72001 8.65366 7.28002 11.4403 8.38669 14.507C8.57335 15.027 8.30675 15.6003 7.78675 15.787C7.26675 15.9737 6.69339 15.707 6.50672 15.187C5.16005 11.427 5.7734 7.827 8.18673 5.29366C10.6534 2.707 14.6134 1.68032 18.0134 2.72032C21.1334 3.68032 23.3333 6.25365 24.1334 9.82699C26.8533 10.4403 29.04 12.507 29.9067 15.3603C30.8534 18.467 30 21.667 27.6667 23.6937C26.1867 25.027 24.2534 25.787 22.2267 25.787Z" fill="#07A1E3"/>
<path d="M16.0002 29.7064C13.3202 29.7064 10.8135 28.2797 9.44019 25.973C9.29352 25.7464 9.14686 25.4797 9.02686 25.1864C8.57352 24.2397 8.3335 23.1597 8.3335 22.0397C8.3335 17.813 11.7735 14.373 16.0002 14.373C20.2268 14.373 23.6668 17.813 23.6668 22.0397C23.6668 23.173 23.4269 24.2397 22.9469 25.2264C22.8402 25.4797 22.6935 25.7464 22.5335 25.9997C21.1869 28.2797 18.6802 29.7064 16.0002 29.7064ZM16.0002 16.373C12.8802 16.373 10.3335 18.9197 10.3335 22.0397C10.3335 22.8664 10.5068 23.6397 10.8402 24.3464C10.9468 24.573 11.0401 24.7597 11.1468 24.933C12.1601 26.653 14.0135 27.7064 15.9868 27.7064C17.9601 27.7064 19.8135 26.653 20.8135 24.9597C20.9335 24.7597 21.0402 24.573 21.1202 24.3864C21.4802 23.653 21.6535 22.8797 21.6535 22.053C21.6668 18.9197 19.1202 16.373 16.0002 16.373Z" fill="#07A1E3"/>
<path d="M15.24 24.3604C14.9867 24.3604 14.7334 24.2671 14.5334 24.0671L13.2133 22.7471C12.8267 22.3604 12.8267 21.7204 13.2133 21.3338C13.6 20.9471 14.24 20.9471 14.6267 21.3338L15.2667 21.9738L17.4 20.0004C17.8134 19.6271 18.44 19.6538 18.8134 20.0538C19.1867 20.4538 19.1601 21.0938 18.7601 21.4671L15.92 24.0938C15.72 24.2671 15.48 24.3604 15.24 24.3604Z" fill="#07A1E3"/>
</svg>
