<svg width="32" height="32" viewBox="0 0 32 32" fill="none" xmlns="http://www.w3.org/2000/svg">
<path d="M19.2002 27.6663H12.8002C6.94683 27.6663 4.3335 25.053 4.3335 19.1997V12.7997C4.3335 6.94634 6.94683 4.33301 12.8002 4.33301H19.2002C25.0535 4.33301 27.6668 6.94634 27.6668 12.7997V19.1997C27.6668 25.053 25.0535 27.6663 19.2002 27.6663ZM12.8002 6.33301C8.02683 6.33301 6.3335 8.02634 6.3335 12.7997V19.1997C6.3335 23.973 8.02683 25.6663 12.8002 25.6663H19.2002C23.9735 25.6663 25.6668 23.973 25.6668 19.1997V12.7997C25.6668 8.02634 23.9735 6.33301 19.2002 6.33301H12.8002Z" fill="#07A1E3"/>
<path d="M18.0002 23.6663H14.0002C10.1335 23.6663 8.3335 21.8663 8.3335 17.9997V13.9997C8.3335 10.133 10.1335 8.33301 14.0002 8.33301H18.0002C21.8668 8.33301 23.6668 10.133 23.6668 13.9997V17.9997C23.6668 21.8663 21.8668 23.6663 18.0002 23.6663ZM14.0002 10.333C11.2268 10.333 10.3335 11.2263 10.3335 13.9997V17.9997C10.3335 20.773 11.2268 21.6663 14.0002 21.6663H18.0002C20.7735 21.6663 21.6668 20.773 21.6668 17.9997V13.9997C21.6668 11.2263 20.7735 10.333 18.0002 10.333H14.0002Z" fill="#07A1E3"/>
<path d="M10.6802 6.33366C10.1202 6.33366 9.68018 5.88033 9.68018 5.33366V2.66699C9.68018 2.12033 10.1335 1.66699 10.6802 1.66699C11.2268 1.66699 11.6802 2.12033 11.6802 2.66699V5.33366C11.6802 5.88033 11.2268 6.33366 10.6802 6.33366Z" fill="#07A1E3"/>
<path d="M16 6.33366C15.4533 6.33366 15 5.88033 15 5.33366V2.66699C15 2.12033 15.4533 1.66699 16 1.66699C16.5467 1.66699 17 2.12033 17 2.66699V5.33366C17 5.88033 16.5467 6.33366 16 6.33366Z" fill="#07A1E3"/>
<path d="M21.3335 6.33366C20.7868 6.33366 20.3335 5.88033 20.3335 5.33366V2.66699C20.3335 2.12033 20.7868 1.66699 21.3335 1.66699C21.8802 1.66699 22.3335 2.12033 22.3335 2.66699V5.33366C22.3335 5.88033 21.8802 6.33366 21.3335 6.33366Z" fill="#07A1E3"/>
<path d="M29.3332 11.667H26.6665C26.1198 11.667 25.6665 11.2137 25.6665 10.667C25.6665 10.1203 26.1198 9.66699 26.6665 9.66699H29.3332C29.8798 9.66699 30.3332 10.1203 30.3332 10.667C30.3332 11.2137 29.8932 11.667 29.3332 11.667Z" fill="#07A1E3"/>
<path d="M29.3332 17H26.6665C26.1198 17 25.6665 16.5467 25.6665 16C25.6665 15.4533 26.1198 15 26.6665 15H29.3332C29.8798 15 30.3332 15.4533 30.3332 16C30.3332 16.5467 29.8932 17 29.3332 17Z" fill="#07A1E3"/>
<path d="M29.3332 22.333H26.6665C26.1198 22.333 25.6665 21.8797 25.6665 21.333C25.6665 20.7863 26.1198 20.333 26.6665 20.333H29.3332C29.8798 20.333 30.3332 20.7863 30.3332 21.333C30.3332 21.8797 29.8932 22.333 29.3332 22.333Z" fill="#07A1E3"/>
<path d="M21.3335 30.3337C20.7868 30.3337 20.3335 29.8803 20.3335 29.3337V26.667C20.3335 26.1203 20.7868 25.667 21.3335 25.667C21.8802 25.667 22.3335 26.1203 22.3335 26.667V29.3337C22.3335 29.8803 21.8802 30.3337 21.3335 30.3337Z" fill="#07A1E3"/>
<path d="M16.0132 30.3337C15.4665 30.3337 15.0132 29.8803 15.0132 29.3337V26.667C15.0132 26.1203 15.4665 25.667 16.0132 25.667C16.5599 25.667 17.0132 26.1203 17.0132 26.667V29.3337C17.0132 29.8803 16.5599 30.3337 16.0132 30.3337Z" fill="#07A1E3"/>
<path d="M10.6802 30.3337C10.1335 30.3337 9.68018 29.8803 9.68018 29.3337V26.667C9.68018 26.1203 10.1335 25.667 10.6802 25.667C11.2268 25.667 11.6802 26.1203 11.6802 26.667V29.3337C11.6802 29.8803 11.2268 30.3337 10.6802 30.3337Z" fill="#07A1E3"/>
<path d="M5.33317 11.667H2.6665C2.11984 11.667 1.6665 11.227 1.6665 10.667C1.6665 10.107 2.11984 9.66699 2.6665 9.66699H5.33317C5.87984 9.66699 6.33317 10.1203 6.33317 10.667C6.33317 11.2137 5.89317 11.667 5.33317 11.667Z" fill="#07A1E3"/>
<path d="M5.33317 17H2.6665C2.11984 17 1.6665 16.5467 1.6665 16C1.6665 15.4533 2.11984 15 2.6665 15H5.33317C5.87984 15 6.33317 15.4533 6.33317 16C6.33317 16.5467 5.89317 17 5.33317 17Z" fill="#07A1E3"/>
<path d="M5.33317 22.333H2.6665C2.11984 22.333 1.6665 21.8797 1.6665 21.333C1.6665 20.7863 2.11984 20.333 2.6665 20.333H5.33317C5.87984 20.333 6.33317 20.7863 6.33317 21.333C6.33317 21.8797 5.89317 22.333 5.33317 22.333Z" fill="#07A1E3"/>
<path d="M16.0002 20.0666C15.8268 20.0666 15.6535 20.0266 15.5068 19.9333C15.0268 19.6533 14.8668 19.0399 15.1335 18.5733L16.0402 16.9999H15.2535C14.6135 16.9999 14.0935 16.7199 13.8135 16.2399C13.5335 15.7599 13.5602 15.1599 13.8668 14.6133L15.1202 12.4266C15.4002 11.9466 16.0135 11.7866 16.4802 12.0533C16.9602 12.3333 17.1202 12.9466 16.8535 13.4133L15.9468 14.9866H16.7335C17.3735 14.9866 17.8935 15.2666 18.1735 15.7466C18.4535 16.2266 18.4268 16.8266 18.1202 17.3733L16.8668 19.5599C16.6802 19.8933 16.3468 20.0666 16.0002 20.0666Z" fill="#07A1E3"/>
</svg>
