<svg width="32" height="32" viewBox="0 0 32 32" fill="none" xmlns="http://www.w3.org/2000/svg">
<path d="M13.3332 23.5997H8.27984C3.21317 23.5997 1.6665 22.053 1.6665 16.9864V8.98638C1.6665 3.91971 3.21317 2.37305 8.27984 2.37305H22.3198C27.3865 2.37305 28.9332 3.91971 28.9332 8.98638C28.9332 9.53305 28.4798 9.98638 27.9332 9.98638C27.3865 9.98638 26.9332 9.53305 26.9332 8.98638C26.9332 5.06638 26.2398 4.37305 22.3198 4.37305H8.27984C4.35984 4.37305 3.6665 5.06638 3.6665 8.98638V16.9864C3.6665 20.9064 4.35984 21.5997 8.27984 21.5997H13.3332C13.8798 21.5997 14.3332 22.053 14.3332 22.5997C14.3332 23.1464 13.8798 23.5997 13.3332 23.5997Z" fill="#07A1E3"/>
<path d="M13.3335 29.6269C12.7868 29.6269 12.3335 29.1736 12.3335 28.6269V22.5869C12.3335 22.0402 12.7868 21.5869 13.3335 21.5869C13.8802 21.5869 14.3335 22.0402 14.3335 22.5869V28.6269C14.3335 29.1869 13.8802 29.6269 13.3335 29.6269Z" fill="#07A1E3"/>
<path d="M13.3332 18.2666H2.6665C2.11984 18.2666 1.6665 17.8133 1.6665 17.2666C1.6665 16.7199 2.11984 16.2666 2.6665 16.2666H13.3332C13.8798 16.2666 14.3332 16.7199 14.3332 17.2666C14.3332 17.8133 13.8798 18.2666 13.3332 18.2666Z" fill="#07A1E3"/>
<path d="M13.3335 29.627H8.98682C8.44015 29.627 7.98682 29.1736 7.98682 28.627C7.98682 28.0803 8.44015 27.627 8.98682 27.627H13.3335C13.8801 27.627 14.3335 28.0803 14.3335 28.627C14.3335 29.1736 13.8801 29.627 13.3335 29.627Z" fill="#07A1E3"/>
<path d="M25.3865 29.6268H20.6532C16.9599 29.6268 15.7065 28.3735 15.7065 24.6801V17.0668C15.7065 13.3735 16.9599 12.1201 20.6532 12.1201H25.3865C29.0799 12.1201 30.3332 13.3735 30.3332 17.0668V24.6801C30.3332 28.3868 29.0799 29.6268 25.3865 29.6268ZM20.6532 14.1201C18.0399 14.1201 17.7065 14.4535 17.7065 17.0668V24.6801C17.7065 27.2935 18.0399 27.6268 20.6532 27.6268H25.3865C27.9999 27.6268 28.3332 27.2935 28.3332 24.6801V17.0668C28.3332 14.4535 27.9999 14.1201 25.3865 14.1201H20.6532Z" fill="#07A1E3"/>
<path d="M23.0667 25.2934C22.7201 25.2934 22.3734 25.1601 22.1201 24.9067C22.0001 24.7867 21.9067 24.6401 21.8401 24.4801C21.7734 24.3067 21.7334 24.1334 21.7334 23.9601C21.7334 23.6134 21.8801 23.2667 22.1201 23.0267C22.4267 22.7201 22.8934 22.5734 23.3334 22.6534C23.4134 22.6801 23.4934 22.7067 23.5734 22.7334C23.6534 22.7734 23.7334 22.8134 23.8001 22.8534C23.8801 22.9067 23.9467 22.9601 24.0134 23.0267C24.2534 23.2667 24.4001 23.6134 24.4001 23.9601C24.4001 24.1334 24.3601 24.3067 24.2934 24.4801C24.2267 24.6401 24.1334 24.7867 24.0134 24.9067C23.9467 24.9734 23.8801 25.0267 23.8001 25.0667C23.7334 25.1201 23.6534 25.1601 23.5734 25.2001C23.4934 25.2267 23.4134 25.2534 23.3334 25.2667C23.2401 25.2934 23.1601 25.2934 23.0667 25.2934Z" fill="#07A1E3"/>
</svg>
