<svg width="17" height="17" viewBox="0 0 17 17" fill="none" xmlns="http://www.w3.org/2000/svg">
<path fill-rule="evenodd" clip-rule="evenodd" d="M4.86095 0.048165C5.74292 0.00875727 6.02412 0 8.27077 0C10.5174 0 10.7986 0.00948704 11.6798 0.048165C12.561 0.086843 13.1625 0.223311 13.6889 0.421079C14.24 0.623227 14.74 0.939218 15.1535 1.34789C15.5746 1.74854 15.8994 2.23311 16.1069 2.76876C16.3115 3.2796 16.4513 3.86342 16.4919 4.71726C16.5325 5.57474 16.5415 5.84767 16.5415 8.02751C16.5415 10.2081 16.5318 10.481 16.4919 11.337C16.4521 12.1909 16.3115 12.7747 16.1069 13.2855C15.8994 13.8212 15.5741 14.3066 15.1535 14.7079C14.74 15.1165 14.24 15.4318 13.6889 15.6332C13.1625 15.8317 12.561 15.9674 11.6813 16.0069C10.7986 16.0463 10.5174 16.055 8.27077 16.055C6.02412 16.055 5.74292 16.0455 4.86095 16.0069C3.98125 15.9682 3.37974 15.8317 2.85341 15.6332C2.30147 15.4318 1.80139 15.116 1.38798 14.7079C0.967213 14.307 0.641597 13.8218 0.433839 13.2863C0.230078 12.7754 0.0902265 12.1916 0.0496246 11.3378C0.00902264 10.4803 0 10.2073 0 8.02751C0 5.84694 0.00977453 5.57401 0.0496246 4.71872C0.0894746 3.86342 0.230078 3.2796 0.433839 2.76876C0.641904 2.23317 0.967769 1.74804 1.38874 1.34716C1.80155 0.938854 2.30113 0.62282 2.85266 0.421079C3.37898 0.223311 3.98049 0.0875728 4.8602 0.048165H4.86095ZM11.6129 1.49312C10.7407 1.45444 10.4791 1.44641 8.27077 1.44641C6.06247 1.44641 5.80081 1.45444 4.92862 1.49312C4.12185 1.52888 3.68425 1.6595 3.39252 1.7697C3.0068 1.91566 2.73086 2.08861 2.44138 2.36957C2.16697 2.62868 1.9558 2.94411 1.82333 3.29274C1.70979 3.57589 1.5752 4.00062 1.53836 4.78366C1.49851 5.6302 1.49024 5.88416 1.49024 8.02751C1.49024 10.1709 1.49851 10.4248 1.53836 11.2714C1.5752 12.0544 1.70979 12.4791 1.82333 12.7623C1.95566 13.1104 2.16694 13.4264 2.44138 13.6854C2.7083 13.9518 3.03387 14.1569 3.39252 14.2853C3.68425 14.3955 4.12185 14.5261 4.92862 14.5619C5.80081 14.6006 6.06172 14.6086 8.27077 14.6086C10.4798 14.6086 10.7407 14.6006 11.6129 14.5619C12.4197 14.5261 12.8573 14.3955 13.149 14.2853C13.5347 14.1394 13.8107 13.9664 14.1002 13.6854C14.3746 13.4264 14.5859 13.1104 14.7182 12.7623C14.8317 12.4791 14.9663 12.0544 15.0032 11.2714C15.043 10.4248 15.0513 10.1709 15.0513 8.02751C15.0513 5.88416 15.043 5.6302 15.0032 4.78366C14.9663 4.00062 14.8317 3.57589 14.7182 3.29274C14.5678 2.91836 14.3896 2.65054 14.1002 2.36957C13.8332 2.10326 13.5082 1.89829 13.149 1.7697C12.8573 1.6595 12.4197 1.52888 11.6129 1.49312ZM7.21436 10.5022C7.80434 10.7405 8.46128 10.7727 9.07298 10.5932C9.68467 10.4137 10.2132 10.0336 10.5682 9.51788C10.9233 9.00217 11.0829 8.38281 11.0197 7.7656C10.9565 7.14838 10.6746 6.57159 10.2219 6.13375C9.93337 5.85386 9.58447 5.63955 9.20035 5.50625C8.81623 5.37294 8.40643 5.32396 8.00046 5.36282C7.59449 5.40169 7.20245 5.52743 6.85256 5.73101C6.50267 5.93458 6.20363 6.21092 5.97698 6.54012C5.75033 6.86933 5.60171 7.24321 5.5418 7.63486C5.4819 8.02651 5.5122 8.42618 5.63054 8.80509C5.74888 9.18401 5.95231 9.53275 6.22617 9.8262C6.50004 10.1196 6.83754 10.3505 7.21436 10.5022ZM5.26472 5.10987C5.65948 4.72672 6.12813 4.42279 6.6439 4.21544C7.15968 4.00808 7.71249 3.90135 8.27077 3.90135C8.82904 3.90135 9.38185 4.00808 9.89763 4.21544C10.4134 4.42279 10.8821 4.72672 11.2768 5.10987C11.6716 5.49302 11.9847 5.94789 12.1984 6.4485C12.412 6.9491 12.522 7.48565 12.522 8.02751C12.522 8.56936 12.412 9.10591 12.1984 9.60652C11.9847 10.1071 11.6716 10.562 11.2768 10.9451C10.4796 11.7189 9.39825 12.1537 8.27077 12.1537C7.14328 12.1537 6.06197 11.7189 5.26472 10.9451C4.46746 10.1713 4.01957 9.12183 4.01957 8.02751C4.01957 6.93318 4.46746 5.88368 5.26472 5.10987ZM13.4648 4.51584C13.5626 4.42627 13.6409 4.31857 13.6951 4.1991C13.7493 4.07963 13.7782 3.95082 13.7802 3.82031C13.7821 3.6898 13.7571 3.56023 13.7065 3.43928C13.656 3.31833 13.5809 3.20846 13.4858 3.11616C13.3907 3.02387 13.2775 2.95103 13.1529 2.90196C13.0283 2.85289 12.8948 2.82858 12.7603 2.83049C12.6259 2.83239 12.4932 2.86046 12.3701 2.91303C12.247 2.96561 12.136 3.04162 12.0437 3.13657C11.8643 3.32122 11.766 3.56649 11.7698 3.82031C11.7736 4.07413 11.8792 4.31652 12.0642 4.49602C12.2491 4.67552 12.4988 4.77799 12.7603 4.78169C13.0219 4.78539 13.2746 4.69003 13.4648 4.51584Z" fill="white"/>
</svg>
