<svg width="16" height="16" viewBox="0 0 16 16" fill="none" xmlns="http://www.w3.org/2000/svg">
<path fill-rule="evenodd" clip-rule="evenodd" d="M11.5354 9.52644C11.338 9.42775 10.3703 8.95216 10.1901 8.88592C10.01 8.82034 9.87881 8.78788 9.74699 8.98528C9.61584 9.18134 9.23894 9.62514 9.12435 9.75629C9.00909 9.88811 8.8945 9.904 8.69777 9.80597C8.50105 9.70661 7.86648 9.49929 7.11467 8.82895C6.52979 8.30699 6.13434 7.66249 6.01975 7.4651C5.90516 7.26837 6.00717 7.16173 6.10586 7.0637C6.19462 6.9756 6.30259 6.83385 6.40129 6.71926C6.49998 6.604 6.53244 6.52187 6.59801 6.39005C6.66425 6.2589 6.63113 6.14431 6.58145 6.04561C6.53244 5.94692 6.13898 4.97785 5.97471 4.58373C5.81508 4.20021 5.65279 4.25254 5.53224 4.24591C5.41698 4.24061 5.28583 4.23929 5.15468 4.23929C5.02353 4.23929 4.81024 4.28831 4.63007 4.4857C4.44924 4.68242 3.94119 5.15868 3.94119 6.12775C3.94119 7.09615 4.64597 8.0321 4.74466 8.16392C4.84336 8.29507 6.13236 10.2835 8.10693 11.136C8.57722 11.3387 8.94352 11.4599 9.22901 11.55C9.70062 11.7004 10.1298 11.6792 10.469 11.6282C10.8465 11.5719 11.6335 11.1519 11.7977 10.6922C11.9613 10.2325 11.9613 9.83843 11.9123 9.75629C11.8633 9.67416 11.7322 9.62514 11.5348 9.52644H11.5354ZM7.94398 14.4301H7.94133C6.76853 14.4303 5.61727 14.115 4.60821 13.5173L4.36975 13.3756L1.89111 14.026L2.55283 11.6096L2.39717 11.3619C1.7415 10.3182 1.39452 9.11032 1.39631 7.87777C1.39763 4.26777 4.33465 1.33076 7.94663 1.33076C9.69532 1.33076 11.3394 2.01301 12.5754 3.25035C13.185 3.85748 13.6682 4.57947 13.997 5.37455C14.3258 6.16963 14.4937 7.02202 14.491 7.8824C14.4897 11.4924 11.5527 14.4301 7.94398 14.4301ZM13.516 2.31042C12.7861 1.57579 11.9178 0.993297 10.9612 0.596704C10.0046 0.20011 8.97885 -0.00270004 7.94332 2.71429e-05C3.60205 2.71429e-05 0.0675632 3.53385 0.0662385 7.87711C0.0655761 9.26546 0.427901 10.6207 1.11744 11.815L0 15.8973L4.17567 14.8017C5.33079 15.431 6.62523 15.7608 7.94067 15.7608H7.94398C12.2852 15.7608 15.8197 12.227 15.8211 7.88307C15.8243 6.84794 15.6222 5.82245 15.2265 4.86593C14.8309 3.9094 14.2495 3.04082 13.516 2.31042Z" fill="white"/>
</svg>
