<svg width="16" height="17" viewBox="0 0 16 17" fill="none" xmlns="http://www.w3.org/2000/svg">
<path fill-rule="evenodd" clip-rule="evenodd" d="M7.68945 0C11.9293 0 15.3781 3.58349 15.3781 7.98902C15.3781 10.0675 14.6104 11.9632 13.3542 13.386L15.8261 15.9491C16.0574 16.1894 16.0582 16.5783 15.8269 16.8187C15.7116 16.9401 15.5592 17 15.4076 17C15.2568 17 15.1052 16.9401 14.9892 16.8203L12.4874 14.2281C11.1714 15.3232 9.5028 15.9789 7.68945 15.9789C3.44955 15.9789 0 12.3945 0 7.98902C0 3.58349 3.44955 0 7.68945 0ZM7.68945 1.23059C4.10251 1.23059 1.18433 4.26196 1.18433 7.98902C1.18433 11.7161 4.10251 14.7483 7.68945 14.7483C11.2756 14.7483 14.1938 11.7161 14.1938 7.98902C14.1938 4.26196 11.2756 1.23059 7.68945 1.23059Z" fill="black" fill-opacity="0.62"/>
</svg>
