<svg xmlns="http://www.w3.org/2000/svg" width="337.978" height="304.826" viewBox="0 0 337.978 304.826">
  <g id="Group_60" data-name="Group 60" transform="translate(-1000 -667.567)">
    <g id="Group_53" data-name="Group 53" transform="translate(1000 667.567)">
      <g id="Group_55" data-name="Group 55" transform="translate(0)">
        <g id="Group_2" data-name="Group 2">
          <g id="Layer_x0020_1">
            <path id="Path_2" data-name="Path 2" d="M9.786,129.389c29.916,1.135,44.112,6.466,57.378,10.375,6.438,1.9,18.107,7.489,28.047,13.751a198.06,198.06,0,0,1,19.45,14.1c12.636,12.4,44.334,37.966,59.117,43.826a157.058,157.058,0,0,0,19.928,6.262c35.4,8.76,84.144,10.125,110.291-9.623,12.108-9.144,19.416-17.044,26.594-31.994,6.8-14.154,8.77-30.873,6.466-46.7a78.1,78.1,0,0,0-32.821-52.843,75.563,75.563,0,0,0-19.087-9.106,64.308,64.308,0,0,0-12.936-2.555,10.824,10.824,0,0,1-5.087-1.8,13.955,13.955,0,0,1-3.552-4.627C256.313,41.662,231.073-3.2,168.34.166,101.08,3.779,28.461,58.332,1.779,112.67c-.084.172-.159.337-.228.5A11.063,11.063,0,0,0,0,118.858c0,5.815,4.382,10.529,9.786,10.529Z" transform="translate(0 0.014)" fill="#0b92ae" fill-rule="evenodd"/>
            <path id="Path_3" data-name="Path 3" d="M463.649,2067.209a3.329,3.329,0,0,1,0-6.659h51.58a3.329,3.329,0,1,1,0,6.659Z" transform="translate(-421.485 -1886.712)" fill="#0b92ae"/>
            <path id="Path_4" data-name="Path 4" d="M739.9,2260.34a3.329,3.329,0,0,1,0-6.659h51.58a3.329,3.329,0,1,1,0,6.659Z" transform="translate(-674.43 -2063.549)" fill="#0b92ae"/>
            <path id="Path_5" data-name="Path 5" d="M135.319,1862.009a3.329,3.329,0,0,1,0-6.659H186.9a3.329,3.329,0,0,1,0,6.659Z" transform="translate(-120.855 -1698.824)" fill="#0b92ae"/>
          </g>
        </g>
        <text id="A_B_R_S_O" data-name="A B R S O" transform="translate(167.693 289.826)" fill="#0b92ae" font-size="61" font-family="SegoeUI, Segoe UI"><tspan x="-128.017" y="0">A B R S O</tspan></text>
      </g>
    </g>
  </g>
</svg>
