<svg xmlns="http://www.w3.org/2000/svg" width="198.659" height="221.617" viewBox="0 0 198.659 221.617">
  <g id="Layer_x0020_1" transform="translate(0 0)">
    <path id="Path_29" data-name="Path 29" d="M178.571,215.442a18.427,18.427,0,0,1-14.011,6.133H164.5l-.031.031H26.871A26.958,26.958,0,0,1-.01,194.726V26.871A26.958,26.958,0,0,1,26.871-.01H35.8C59.04,1.2,80.828,8.126,99.212,22.411a16.881,16.881,0,0,1,2.4,2.065l4.209,4.717c1.557,1.752,2.676,2.918,4.154,4.772a88.253,88.253,0,0,1,12.885,22.82c1.087,3.02,3.826,10.217,3.912,13.941,13.448,1.119,38.8,15.568,47.683,26.709,4.866,6.1,5.1,5.445,10.546,13.753,15.967,24.385,18.119,58.729,5.422,85.179a93.8,93.8,0,0,1-11.578,18.838.953.953,0,0,1-.274.235ZM23.217,145.4a3.184,3.184,0,1,1,0-6.368h49.31a3.184,3.184,0,1,1,0,6.368Zm48.762,32.122a3.184,3.184,0,1,1,0-6.368h49.31a3.184,3.184,0,1,1,0,6.368ZM49.7,161.947a3.184,3.184,0,0,1,0-6.368h49.31a3.184,3.184,0,0,1,0,6.368H49.7Z" transform="translate(0.01 0.01)" fill="#434242" fill-rule="evenodd"/>
  </g>
</svg>
